<svg width="209" height="35" viewBox="0 0 209 35" fill="none" xmlns="http://www.w3.org/2000/svg">
<path d="M6 24.215V34.015H0.96V10.39H6V12.245C7.21333 10.6583 8.835 9.865 10.865 9.865C13.0817 9.865 14.925 10.6 16.395 12.07C17.9583 13.6333 18.74 15.6633 18.74 18.16C18.74 20.68 17.9117 22.7683 16.255 24.425C14.855 25.825 13.0933 26.525 10.97 26.525C8.75333 26.525 7.09667 25.755 6 24.215ZM9.64 14.205C8.54333 14.205 7.61 14.59 6.84 15.36C6.04667 16.1533 5.65 17.11 5.65 18.23C5.65 19.28 6.02333 20.2017 6.77 20.995C7.56333 21.7883 8.52 22.185 9.64 22.185C10.6667 22.185 11.565 21.8233 12.335 21.1C13.1517 20.33 13.56 19.3383 13.56 18.125C13.56 16.9817 13.1633 16.0367 12.37 15.29C11.6 14.5667 10.69 14.205 9.64 14.205ZM26.393 16.06H33.218C33.0313 15.3133 32.693 14.7067 32.203 14.24C31.573 13.6567 30.7796 13.365 29.823 13.365C28.7963 13.365 27.9446 13.7033 27.268 14.38C26.8013 14.87 26.5096 15.43 26.393 16.06ZM37.873 18.545V19.07H26.218C26.218 20.1433 26.533 21.03 27.163 21.73C27.7696 22.3833 28.633 22.71 29.753 22.71C30.593 22.71 31.2696 22.5583 31.783 22.255C32.1796 22.045 32.5413 21.6133 32.868 20.96L37.628 21.45C37.0913 23.1533 36.088 24.46 34.618 25.37C33.3346 26.14 31.6896 26.525 29.683 26.525C27.023 26.525 24.9463 25.7783 23.453 24.285C21.8896 22.7217 21.108 20.715 21.108 18.265C21.108 15.7917 21.9013 13.7383 23.488 12.105C24.9813 10.6117 26.9763 9.865 29.473 9.865C32.1096 9.865 34.1746 10.6467 35.668 12.21C37.138 13.7733 37.873 15.885 37.873 18.545ZM52.9886 12.14V10.39H58.0286V26H52.9886V24.11C51.9386 25.72 50.3986 26.525 48.3686 26.525C45.9653 26.525 44.0169 25.7317 42.5236 24.145C41.0069 22.535 40.2486 20.5867 40.2486 18.3C40.2486 15.71 41.0536 13.61 42.6636 12C44.0869 10.5767 45.8953 9.865 48.0886 9.865C50.2353 9.865 51.8686 10.6233 52.9886 12.14ZM49.3486 14.205C48.2519 14.205 47.3303 14.5783 46.5836 15.325C45.8136 16.095 45.4286 17.04 45.4286 18.16C45.4286 19.28 45.7786 20.2133 46.4786 20.96C47.2486 21.7767 48.2403 22.185 49.4536 22.185C50.4803 22.185 51.3553 21.8233 52.0786 21.1C52.8953 20.33 53.3036 19.35 53.3036 18.16C53.3036 16.97 52.9186 16.0133 52.1486 15.29C51.4019 14.5667 50.4686 14.205 49.3486 14.205ZM73.6616 10.74V15.325C72.7049 14.5317 71.6082 14.135 70.3716 14.135C69.2049 14.135 68.2482 14.5083 67.5016 15.255C66.7316 16.025 66.3466 17.005 66.3466 18.195C66.3466 19.315 66.6966 20.2483 67.3966 20.995C68.1666 21.835 69.1816 22.255 70.4416 22.255C71.6316 22.255 72.7049 21.8467 73.6616 21.03V25.58C72.5182 26.21 71.1882 26.525 69.6716 26.525C67.2449 26.525 65.2266 25.7433 63.6166 24.18C61.9832 22.5933 61.1666 20.61 61.1666 18.23C61.1666 15.7567 62.0299 13.7033 63.7566 12.07C65.3199 10.6 67.3032 9.865 69.7066 9.865C71.1066 9.865 72.4249 10.1567 73.6616 10.74ZM77.1498 26V0.484999H82.1898V12.245C82.7731 11.5217 83.4031 10.985 84.0798 10.635C84.9198 10.1917 85.9348 9.97 87.1248 9.97C89.0381 9.97 90.5081 10.495 91.5348 11.545C92.5615 12.5717 93.0748 14.0883 93.0748 16.095V26H88.0348V17.985C88.0348 16.445 87.7548 15.4067 87.1948 14.87C86.7281 14.4033 86.0748 14.17 85.2348 14.17C84.4181 14.17 83.7531 14.4267 83.2398 14.94C82.5398 15.6167 82.1898 16.7017 82.1898 18.195V26H77.1498ZM97.0049 26V10.39H102.045V12.21C103.025 10.74 104.483 10.005 106.42 10.005C107.61 10.005 108.59 10.2383 109.36 10.705C110.177 11.1717 110.807 11.895 111.25 12.875C111.74 12.0583 112.405 11.3933 113.245 10.88C114.202 10.2967 115.31 10.005 116.57 10.005C118.46 10.005 119.918 10.495 120.945 11.475C122.018 12.5017 122.555 14.0533 122.555 16.13V26H117.515V18.09C117.515 16.62 117.293 15.605 116.85 15.045C116.407 14.485 115.8 14.205 115.03 14.205C114.19 14.205 113.537 14.52 113.07 15.15C112.557 15.8033 112.3 16.83 112.3 18.23V26H107.26V17.88C107.26 16.3867 106.992 15.3717 106.455 14.835C106.035 14.415 105.475 14.205 104.775 14.205C104.052 14.205 103.468 14.415 103.025 14.835C102.372 15.465 102.045 16.5267 102.045 18.02V26H97.0049ZM141.727 12.385C143.29 13.9483 144.072 15.885 144.072 18.195C144.072 20.505 143.29 22.4417 141.727 24.005C140.047 25.685 137.772 26.525 134.902 26.525C132.032 26.525 129.757 25.685 128.077 24.005C126.514 22.4417 125.732 20.505 125.732 18.195C125.732 15.885 126.514 13.9483 128.077 12.385C129.757 10.705 132.032 9.865 134.902 9.865C137.772 9.865 140.047 10.705 141.727 12.385ZM137.737 15.255C136.99 14.5083 136.045 14.135 134.902 14.135C133.759 14.135 132.814 14.5083 132.067 15.255C131.297 16.025 130.912 17.005 130.912 18.195C130.912 19.385 131.297 20.365 132.067 21.135C132.814 21.8817 133.77 22.255 134.937 22.255C136.057 22.255 136.99 21.8817 137.737 21.135C138.507 20.365 138.892 19.385 138.892 18.195C138.892 17.005 138.507 16.025 137.737 15.255ZM164.225 0.484999V26H159.185V24.11C158.088 25.72 156.443 26.525 154.25 26.525C152.057 26.525 150.272 25.8133 148.895 24.39C147.262 22.7567 146.445 20.6683 146.445 18.125C146.445 15.5817 147.262 13.5283 148.895 11.965C150.365 10.565 152.173 9.865 154.32 9.865C156.443 9.865 158.065 10.6233 159.185 12.14V0.484999H164.225ZM155.545 14.205C154.472 14.205 153.573 14.555 152.85 15.255C152.033 16.025 151.625 17.0167 151.625 18.23C151.625 19.3733 152.033 20.33 152.85 21.1C153.597 21.8233 154.472 22.185 155.475 22.185C156.595 22.185 157.552 21.8 158.345 21.03C159.115 20.3067 159.5 19.3733 159.5 18.23C159.5 17.11 159.127 16.1533 158.38 15.36C157.633 14.59 156.688 14.205 155.545 14.205ZM172.785 16.06H179.61C179.423 15.3133 179.085 14.7067 178.595 14.24C177.965 13.6567 177.171 13.365 176.215 13.365C175.188 13.365 174.336 13.7033 173.66 14.38C173.193 14.87 172.901 15.43 172.785 16.06ZM184.265 18.545V19.07H172.61C172.61 20.1433 172.925 21.03 173.555 21.73C174.161 22.3833 175.025 22.71 176.145 22.71C176.985 22.71 177.661 22.5583 178.175 22.255C178.571 22.045 178.933 21.6133 179.26 20.96L184.02 21.45C183.483 23.1533 182.48 24.46 181.01 25.37C179.726 26.14 178.081 26.525 176.075 26.525C173.415 26.525 171.338 25.7783 169.845 24.285C168.281 22.7217 167.5 20.715 167.5 18.265C167.5 15.7917 168.293 13.7383 169.88 12.105C171.373 10.6117 173.368 9.865 175.865 9.865C178.501 9.865 180.566 10.6467 182.06 12.21C183.53 13.7733 184.265 15.885 184.265 18.545ZM187.55 0.484999H192.59V26H187.55V0.484999ZM208.189 11.195L206.194 14.38C205.214 13.7967 204.292 13.505 203.429 13.505C202.775 13.505 202.297 13.6567 201.994 13.96C201.784 14.17 201.679 14.4033 201.679 14.66C201.679 14.94 201.842 15.1733 202.169 15.36C202.215 15.4067 202.717 15.5817 203.674 15.885L205.004 16.305C206.124 16.655 206.987 17.11 207.594 17.67C208.41 18.4167 208.819 19.4083 208.819 20.645C208.819 22.3017 208.282 23.6667 207.209 24.74C206.019 25.93 204.327 26.525 202.134 26.525C199.567 26.525 197.432 25.7783 195.729 24.285L197.864 20.89C198.47 21.4033 199.042 21.7883 199.579 22.045C200.232 22.3717 200.932 22.535 201.679 22.535C202.425 22.535 202.95 22.4183 203.254 22.185C203.604 21.905 203.779 21.5667 203.779 21.17C203.779 20.7967 203.592 20.4933 203.219 20.26C202.962 20.0967 202.449 19.91 201.679 19.7L200.419 19.315C199.369 18.9883 198.529 18.51 197.899 17.88C197.152 17.0867 196.779 16.1417 196.779 15.045C196.779 13.575 197.28 12.3733 198.284 11.44C199.427 10.39 201.002 9.865 203.009 9.865C204.945 9.865 206.672 10.3083 208.189 11.195Z" fill="white"/>
</svg>
