<svg width="268" height="44" viewBox="0 0 268 44" fill="none" xmlns="http://www.w3.org/2000/svg">
<path d="M7 30.705V43.305H0.52V12.93H7V15.315C8.56 13.275 10.645 12.255 13.255 12.255C16.105 12.255 18.475 13.2 20.365 15.09C22.375 17.1 23.38 19.71 23.38 22.92C23.38 26.16 22.315 28.845 20.185 30.975C18.385 32.775 16.12 33.675 13.39 33.675C10.54 33.675 8.41 32.685 7 30.705ZM11.68 17.835C10.27 17.835 9.07 18.33 8.08 19.32C7.06 20.34 6.55 21.57 6.55 23.01C6.55 24.36 7.03 25.545 7.99 26.565C9.01 27.585 10.24 28.095 11.68 28.095C13 28.095 14.155 27.63 15.145 26.7C16.195 25.71 16.72 24.435 16.72 22.875C16.72 21.405 16.21 20.19 15.19 19.23C14.2 18.3 13.03 17.835 11.68 17.835ZM33.2195 20.22H41.9945C41.7545 19.26 41.3195 18.48 40.6895 17.88C39.8795 17.13 38.8595 16.755 37.6295 16.755C36.3095 16.755 35.2145 17.19 34.3445 18.06C33.7445 18.69 33.3695 19.41 33.2195 20.22ZM47.9795 23.415V24.09H32.9945C32.9945 25.47 33.3995 26.61 34.2095 27.51C34.9895 28.35 36.0995 28.77 37.5395 28.77C38.6195 28.77 39.4895 28.575 40.1495 28.185C40.6595 27.915 41.1245 27.36 41.5445 26.52L47.6645 27.15C46.9745 29.34 45.6845 31.02 43.7945 32.19C42.1445 33.18 40.0295 33.675 37.4495 33.675C34.0295 33.675 31.3595 32.715 29.4395 30.795C27.4295 28.785 26.4245 26.205 26.4245 23.055C26.4245 19.875 27.4445 17.235 29.4845 15.135C31.4045 13.215 33.9695 12.255 37.1795 12.255C40.5695 12.255 43.2245 13.26 45.1445 15.27C47.0345 17.28 47.9795 19.995 47.9795 23.415ZM67.4139 15.18V12.93H73.8939V33H67.4139V30.57C66.0639 32.64 64.0839 33.675 61.4739 33.675C58.3839 33.675 55.8789 32.655 53.9589 30.615C52.0089 28.545 51.0339 26.04 51.0339 23.1C51.0339 19.77 52.0689 17.07 54.1389 15C55.9689 13.17 58.2939 12.255 61.1139 12.255C63.8739 12.255 65.9739 13.23 67.4139 15.18ZM62.7339 17.835C61.3239 17.835 60.1389 18.315 59.1789 19.275C58.1889 20.265 57.6939 21.48 57.6939 22.92C57.6939 24.36 58.1439 25.56 59.0439 26.52C60.0339 27.57 61.3089 28.095 62.8689 28.095C64.1889 28.095 65.3139 27.63 66.2439 26.7C67.2939 25.71 67.8189 24.45 67.8189 22.92C67.8189 21.39 67.3239 20.16 66.3339 19.23C65.3739 18.3 64.1739 17.835 62.7339 17.835ZM93.9934 13.38V19.275C92.7634 18.255 91.3534 17.745 89.7634 17.745C88.2634 17.745 87.0334 18.225 86.0734 19.185C85.0834 20.175 84.5884 21.435 84.5884 22.965C84.5884 24.405 85.0384 25.605 85.9384 26.565C86.9284 27.645 88.2334 28.185 89.8534 28.185C91.3834 28.185 92.7634 27.66 93.9934 26.61V32.46C92.5234 33.27 90.8134 33.675 88.8634 33.675C85.7434 33.675 83.1484 32.67 81.0784 30.66C78.9784 28.62 77.9284 26.07 77.9284 23.01C77.9284 19.83 79.0384 17.19 81.2584 15.09C83.2684 13.2 85.8184 12.255 88.9084 12.255C90.7084 12.255 92.4034 12.63 93.9934 13.38ZM98.4783 33V0.194999H104.958V15.315C105.708 14.385 106.518 13.695 107.388 13.245C108.468 12.675 109.773 12.39 111.303 12.39C113.763 12.39 115.653 13.065 116.973 14.415C118.293 15.735 118.953 17.685 118.953 20.265V33H112.473V22.695C112.473 20.715 112.113 19.38 111.393 18.69C110.793 18.09 109.953 17.79 108.873 17.79C107.823 17.79 106.968 18.12 106.308 18.78C105.408 19.65 104.958 21.045 104.958 22.965V33H98.4783ZM124.006 33V12.93H130.486V15.27C131.746 13.38 133.621 12.435 136.111 12.435C137.641 12.435 138.901 12.735 139.891 13.335C140.941 13.935 141.751 14.865 142.321 16.125C142.951 15.075 143.806 14.22 144.886 13.56C146.116 12.81 147.541 12.435 149.161 12.435C151.591 12.435 153.466 13.065 154.786 14.325C156.166 15.645 156.856 17.64 156.856 20.31V33H150.376V22.83C150.376 20.94 150.091 19.635 149.521 18.915C148.951 18.195 148.171 17.835 147.181 17.835C146.101 17.835 145.261 18.24 144.661 19.05C144.001 19.89 143.671 21.21 143.671 23.01V33H137.191V22.56C137.191 20.64 136.846 19.335 136.156 18.645C135.616 18.105 134.896 17.835 133.996 17.835C133.066 17.835 132.316 18.105 131.746 18.645C130.906 19.455 130.486 20.82 130.486 22.74V33H124.006ZM181.506 15.495C183.516 17.505 184.521 19.995 184.521 22.965C184.521 25.935 183.516 28.425 181.506 30.435C179.346 32.595 176.421 33.675 172.731 33.675C169.041 33.675 166.116 32.595 163.956 30.435C161.946 28.425 160.941 25.935 160.941 22.965C160.941 19.995 161.946 17.505 163.956 15.495C166.116 13.335 169.041 12.255 172.731 12.255C176.421 12.255 179.346 13.335 181.506 15.495ZM176.376 19.185C175.416 18.225 174.201 17.745 172.731 17.745C171.261 17.745 170.046 18.225 169.086 19.185C168.096 20.175 167.601 21.435 167.601 22.965C167.601 24.495 168.096 25.755 169.086 26.745C170.046 27.705 171.276 28.185 172.776 28.185C174.216 28.185 175.416 27.705 176.376 26.745C177.366 25.755 177.861 24.495 177.861 22.965C177.861 21.435 177.366 20.175 176.376 19.185ZM210.432 0.194999V33H203.952V30.57C202.542 32.64 200.427 33.675 197.607 33.675C194.787 33.675 192.492 32.76 190.722 30.93C188.622 28.83 187.572 26.145 187.572 22.875C187.572 19.605 188.622 16.965 190.722 14.955C192.612 13.155 194.937 12.255 197.697 12.255C200.427 12.255 202.512 13.23 203.952 15.18V0.194999H210.432ZM199.272 17.835C197.892 17.835 196.737 18.285 195.807 19.185C194.757 20.175 194.232 21.45 194.232 23.01C194.232 24.48 194.757 25.71 195.807 26.7C196.767 27.63 197.892 28.095 199.182 28.095C200.622 28.095 201.852 27.6 202.872 26.61C203.862 25.68 204.357 24.48 204.357 23.01C204.357 21.57 203.877 20.34 202.917 19.32C201.957 18.33 200.742 17.835 199.272 17.835ZM221.437 20.22H230.212C229.972 19.26 229.537 18.48 228.907 17.88C228.097 17.13 227.077 16.755 225.847 16.755C224.527 16.755 223.432 17.19 222.562 18.06C221.962 18.69 221.587 19.41 221.437 20.22ZM236.197 23.415V24.09H221.212C221.212 25.47 221.617 26.61 222.427 27.51C223.207 28.35 224.317 28.77 225.757 28.77C226.837 28.77 227.707 28.575 228.367 28.185C228.877 27.915 229.342 27.36 229.762 26.52L235.882 27.15C235.192 29.34 233.902 31.02 232.012 32.19C230.362 33.18 228.247 33.675 225.667 33.675C222.247 33.675 219.577 32.715 217.657 30.795C215.647 28.785 214.642 26.205 214.642 23.055C214.642 19.875 215.662 17.235 217.702 15.135C219.622 13.215 222.187 12.255 225.397 12.255C228.787 12.255 231.442 13.26 233.362 15.27C235.252 17.28 236.197 19.995 236.197 23.415ZM240.422 0.194999H246.902V33H240.422V0.194999ZM266.957 13.965L264.392 18.06C263.132 17.31 261.947 16.935 260.837 16.935C259.997 16.935 259.382 17.13 258.992 17.52C258.722 17.79 258.587 18.09 258.587 18.42C258.587 18.78 258.797 19.08 259.217 19.32C259.277 19.38 259.922 19.605 261.152 19.995L262.862 20.535C264.302 20.985 265.412 21.57 266.192 22.29C267.242 23.25 267.767 24.525 267.767 26.115C267.767 28.245 267.077 30 265.697 31.38C264.167 32.91 261.992 33.675 259.172 33.675C255.872 33.675 253.127 32.715 250.937 30.795L253.682 26.43C254.462 27.09 255.197 27.585 255.887 27.915C256.727 28.335 257.627 28.545 258.587 28.545C259.547 28.545 260.222 28.395 260.612 28.095C261.062 27.735 261.287 27.3 261.287 26.79C261.287 26.31 261.047 25.92 260.567 25.62C260.237 25.41 259.577 25.17 258.587 24.9L256.967 24.405C255.617 23.985 254.537 23.37 253.727 22.56C252.767 21.54 252.287 20.325 252.287 18.915C252.287 17.025 252.932 15.48 254.222 14.28C255.692 12.93 257.717 12.255 260.297 12.255C262.787 12.255 265.007 12.825 266.957 13.965Z" fill="white"/>
<path d="M7 30.705V43.305H0.52V12.93H7V15.315C8.56 13.275 10.645 12.255 13.255 12.255C16.105 12.255 18.475 13.2 20.365 15.09C22.375 17.1 23.38 19.71 23.38 22.92C23.38 26.16 22.315 28.845 20.185 30.975C18.385 32.775 16.12 33.675 13.39 33.675C10.54 33.675 8.41 32.685 7 30.705ZM11.68 17.835C10.27 17.835 9.07 18.33 8.08 19.32C7.06 20.34 6.55 21.57 6.55 23.01C6.55 24.36 7.03 25.545 7.99 26.565C9.01 27.585 10.24 28.095 11.68 28.095C13 28.095 14.155 27.63 15.145 26.7C16.195 25.71 16.72 24.435 16.72 22.875C16.72 21.405 16.21 20.19 15.19 19.23C14.2 18.3 13.03 17.835 11.68 17.835ZM33.2195 20.22H41.9945C41.7545 19.26 41.3195 18.48 40.6895 17.88C39.8795 17.13 38.8595 16.755 37.6295 16.755C36.3095 16.755 35.2145 17.19 34.3445 18.06C33.7445 18.69 33.3695 19.41 33.2195 20.22ZM47.9795 23.415V24.09H32.9945C32.9945 25.47 33.3995 26.61 34.2095 27.51C34.9895 28.35 36.0995 28.77 37.5395 28.77C38.6195 28.77 39.4895 28.575 40.1495 28.185C40.6595 27.915 41.1245 27.36 41.5445 26.52L47.6645 27.15C46.9745 29.34 45.6845 31.02 43.7945 32.19C42.1445 33.18 40.0295 33.675 37.4495 33.675C34.0295 33.675 31.3595 32.715 29.4395 30.795C27.4295 28.785 26.4245 26.205 26.4245 23.055C26.4245 19.875 27.4445 17.235 29.4845 15.135C31.4045 13.215 33.9695 12.255 37.1795 12.255C40.5695 12.255 43.2245 13.26 45.1445 15.27C47.0345 17.28 47.9795 19.995 47.9795 23.415ZM67.4139 15.18V12.93H73.8939V33H67.4139V30.57C66.0639 32.64 64.0839 33.675 61.4739 33.675C58.3839 33.675 55.8789 32.655 53.9589 30.615C52.0089 28.545 51.0339 26.04 51.0339 23.1C51.0339 19.77 52.0689 17.07 54.1389 15C55.9689 13.17 58.2939 12.255 61.1139 12.255C63.8739 12.255 65.9739 13.23 67.4139 15.18ZM62.7339 17.835C61.3239 17.835 60.1389 18.315 59.1789 19.275C58.1889 20.265 57.6939 21.48 57.6939 22.92C57.6939 24.36 58.1439 25.56 59.0439 26.52C60.0339 27.57 61.3089 28.095 62.8689 28.095C64.1889 28.095 65.3139 27.63 66.2439 26.7C67.2939 25.71 67.8189 24.45 67.8189 22.92C67.8189 21.39 67.3239 20.16 66.3339 19.23C65.3739 18.3 64.1739 17.835 62.7339 17.835ZM93.9934 13.38V19.275C92.7634 18.255 91.3534 17.745 89.7634 17.745C88.2634 17.745 87.0334 18.225 86.0734 19.185C85.0834 20.175 84.5884 21.435 84.5884 22.965C84.5884 24.405 85.0384 25.605 85.9384 26.565C86.9284 27.645 88.2334 28.185 89.8534 28.185C91.3834 28.185 92.7634 27.66 93.9934 26.61V32.46C92.5234 33.27 90.8134 33.675 88.8634 33.675C85.7434 33.675 83.1484 32.67 81.0784 30.66C78.9784 28.62 77.9284 26.07 77.9284 23.01C77.9284 19.83 79.0384 17.19 81.2584 15.09C83.2684 13.2 85.8184 12.255 88.9084 12.255C90.7084 12.255 92.4034 12.63 93.9934 13.38ZM98.4783 33V0.194999H104.958V15.315C105.708 14.385 106.518 13.695 107.388 13.245C108.468 12.675 109.773 12.39 111.303 12.39C113.763 12.39 115.653 13.065 116.973 14.415C118.293 15.735 118.953 17.685 118.953 20.265V33H112.473V22.695C112.473 20.715 112.113 19.38 111.393 18.69C110.793 18.09 109.953 17.79 108.873 17.79C107.823 17.79 106.968 18.12 106.308 18.78C105.408 19.65 104.958 21.045 104.958 22.965V33H98.4783ZM124.006 33V12.93H130.486V15.27C131.746 13.38 133.621 12.435 136.111 12.435C137.641 12.435 138.901 12.735 139.891 13.335C140.941 13.935 141.751 14.865 142.321 16.125C142.951 15.075 143.806 14.22 144.886 13.56C146.116 12.81 147.541 12.435 149.161 12.435C151.591 12.435 153.466 13.065 154.786 14.325C156.166 15.645 156.856 17.64 156.856 20.31V33H150.376V22.83C150.376 20.94 150.091 19.635 149.521 18.915C148.951 18.195 148.171 17.835 147.181 17.835C146.101 17.835 145.261 18.24 144.661 19.05C144.001 19.89 143.671 21.21 143.671 23.01V33H137.191V22.56C137.191 20.64 136.846 19.335 136.156 18.645C135.616 18.105 134.896 17.835 133.996 17.835C133.066 17.835 132.316 18.105 131.746 18.645C130.906 19.455 130.486 20.82 130.486 22.74V33H124.006ZM181.506 15.495C183.516 17.505 184.521 19.995 184.521 22.965C184.521 25.935 183.516 28.425 181.506 30.435C179.346 32.595 176.421 33.675 172.731 33.675C169.041 33.675 166.116 32.595 163.956 30.435C161.946 28.425 160.941 25.935 160.941 22.965C160.941 19.995 161.946 17.505 163.956 15.495C166.116 13.335 169.041 12.255 172.731 12.255C176.421 12.255 179.346 13.335 181.506 15.495ZM176.376 19.185C175.416 18.225 174.201 17.745 172.731 17.745C171.261 17.745 170.046 18.225 169.086 19.185C168.096 20.175 167.601 21.435 167.601 22.965C167.601 24.495 168.096 25.755 169.086 26.745C170.046 27.705 171.276 28.185 172.776 28.185C174.216 28.185 175.416 27.705 176.376 26.745C177.366 25.755 177.861 24.495 177.861 22.965C177.861 21.435 177.366 20.175 176.376 19.185ZM210.432 0.194999V33H203.952V30.57C202.542 32.64 200.427 33.675 197.607 33.675C194.787 33.675 192.492 32.76 190.722 30.93C188.622 28.83 187.572 26.145 187.572 22.875C187.572 19.605 188.622 16.965 190.722 14.955C192.612 13.155 194.937 12.255 197.697 12.255C200.427 12.255 202.512 13.23 203.952 15.18V0.194999H210.432ZM199.272 17.835C197.892 17.835 196.737 18.285 195.807 19.185C194.757 20.175 194.232 21.45 194.232 23.01C194.232 24.48 194.757 25.71 195.807 26.7C196.767 27.63 197.892 28.095 199.182 28.095C200.622 28.095 201.852 27.6 202.872 26.61C203.862 25.68 204.357 24.48 204.357 23.01C204.357 21.57 203.877 20.34 202.917 19.32C201.957 18.33 200.742 17.835 199.272 17.835ZM221.437 20.22H230.212C229.972 19.26 229.537 18.48 228.907 17.88C228.097 17.13 227.077 16.755 225.847 16.755C224.527 16.755 223.432 17.19 222.562 18.06C221.962 18.69 221.587 19.41 221.437 20.22ZM236.197 23.415V24.09H221.212C221.212 25.47 221.617 26.61 222.427 27.51C223.207 28.35 224.317 28.77 225.757 28.77C226.837 28.77 227.707 28.575 228.367 28.185C228.877 27.915 229.342 27.36 229.762 26.52L235.882 27.15C235.192 29.34 233.902 31.02 232.012 32.19C230.362 33.18 228.247 33.675 225.667 33.675C222.247 33.675 219.577 32.715 217.657 30.795C215.647 28.785 214.642 26.205 214.642 23.055C214.642 19.875 215.662 17.235 217.702 15.135C219.622 13.215 222.187 12.255 225.397 12.255C228.787 12.255 231.442 13.26 233.362 15.27C235.252 17.28 236.197 19.995 236.197 23.415ZM240.422 0.194999H246.902V33H240.422V0.194999ZM266.957 13.965L264.392 18.06C263.132 17.31 261.947 16.935 260.837 16.935C259.997 16.935 259.382 17.13 258.992 17.52C258.722 17.79 258.587 18.09 258.587 18.42C258.587 18.78 258.797 19.08 259.217 19.32C259.277 19.38 259.922 19.605 261.152 19.995L262.862 20.535C264.302 20.985 265.412 21.57 266.192 22.29C267.242 23.25 267.767 24.525 267.767 26.115C267.767 28.245 267.077 30 265.697 31.38C264.167 32.91 261.992 33.675 259.172 33.675C255.872 33.675 253.127 32.715 250.937 30.795L253.682 26.43C254.462 27.09 255.197 27.585 255.887 27.915C256.727 28.335 257.627 28.545 258.587 28.545C259.547 28.545 260.222 28.395 260.612 28.095C261.062 27.735 261.287 27.3 261.287 26.79C261.287 26.31 261.047 25.92 260.567 25.62C260.237 25.41 259.577 25.17 258.587 24.9L256.967 24.405C255.617 23.985 254.537 23.37 253.727 22.56C252.767 21.54 252.287 20.325 252.287 18.915C252.287 17.025 252.932 15.48 254.222 14.28C255.692 12.93 257.717 12.255 260.297 12.255C262.787 12.255 265.007 12.825 266.957 13.965Z" fill="url(#paint0_linear_51_22)"/>
<defs>
<linearGradient id="paint0_linear_51_22" x1="230.957" y1="18.5686" x2="9.69774" y2="-5.93477" gradientUnits="userSpaceOnUse">
<stop stop-color="#D996FB"/>
<stop offset="1" stop-color="#8CB8FA"/>
</linearGradient>
</defs>
</svg>
