<svg width="18" height="18" viewBox="0 0 18 18" fill="none" xmlns="http://www.w3.org/2000/svg">
<path d="M9 16.4997C8.01481 16.5007 7.0391 16.3074 6.12871 15.9308C5.21832 15.5542 4.39114 15.0018 3.6945 14.3052C2.99787 13.6086 2.44546 12.7814 2.0689 11.871C1.69234 10.9606 1.49902 9.98488 1.5 8.99968V8.84969C1.53001 7.37924 1.99147 5.95004 2.82704 4.7397C3.66261 3.52936 4.83544 2.59126 6.19977 2.04198C7.5641 1.4927 9.05976 1.35647 10.5009 1.65021C11.942 1.94396 13.265 2.65473 14.3055 3.69418C15.3553 4.7431 16.0703 6.07986 16.3601 7.5353C16.6498 8.99074 16.5013 10.4994 15.9333 11.8704C15.3652 13.2414 14.4033 14.4131 13.1691 15.2371C11.9349 16.0612 10.484 16.5006 9 16.4997ZM9 10.0572L10.9425 11.9997L12 10.9422L10.0575 8.99968L12 7.05718L10.9425 5.99968L9 7.94218L7.0575 5.99968L6 7.05718L7.9425 8.99968L6 10.9422L7.0575 11.9997L9 10.0579V10.0572Z" fill="#B760E2"/>
</svg>
