<svg width="45" height="40" viewBox="0 0 45 40" fill="none" xmlns="http://www.w3.org/2000/svg">
<path d="M4.61804 25.369V26.689C4.31737 26.4103 3.95071 26.271 3.51804 26.271C3.09271 26.271 2.76271 26.403 2.52804 26.667C2.29337 26.9237 2.17604 27.239 2.17604 27.613C2.17604 28.0017 2.30437 28.3243 2.56104 28.581C2.82504 28.8377 3.15871 28.966 3.56204 28.966C3.95804 28.966 4.31004 28.8267 4.61804 28.548V29.857C4.22204 30.055 3.81137 30.154 3.38604 30.154C2.64537 30.154 2.03304 29.923 1.54904 29.461C1.04304 28.9843 0.790039 28.3757 0.790039 27.635C0.790039 26.8283 1.06504 26.183 1.61504 25.699C2.07704 25.2883 2.64904 25.083 3.33104 25.083C3.79304 25.083 4.22204 25.1783 4.61804 25.369Z" fill="#B760E2"/>
<path d="M5.6297 25.237H7.7307C8.2367 25.237 8.61436 25.3323 8.8637 25.523C9.1717 25.7577 9.3257 26.0693 9.3257 26.458C9.3257 26.6633 9.26703 26.8577 9.1497 27.041C9.0397 27.217 8.87836 27.349 8.6657 27.437C8.90036 27.481 9.10936 27.5837 9.2927 27.745C9.5347 27.965 9.6557 28.262 9.6557 28.636C9.6557 29.0833 9.48703 29.4353 9.1497 29.692C8.87103 29.8973 8.51536 30 8.0827 30H5.6297V25.237ZM6.9717 27.129H7.5877C7.72703 27.129 7.84436 27.0997 7.9397 27.041C8.05703 26.9677 8.1157 26.8577 8.1157 26.711C8.1157 26.557 8.06436 26.4433 7.9617 26.37C7.88836 26.3187 7.75636 26.293 7.5657 26.293H6.9717V27.129ZM6.9717 28.944H7.5987C7.82603 28.944 7.99103 28.9037 8.0937 28.823C8.21103 28.735 8.2697 28.6067 8.2697 28.438C8.2697 28.284 8.21103 28.1703 8.0937 28.097C7.99103 28.0237 7.83703 27.987 7.6317 27.987H6.9717V28.944Z" fill="#B760E2"/>
<path d="M10.2283 30L11.6363 28.218C11.3283 28.174 11.0716 28.0493 10.8663 27.844C10.617 27.5947 10.4923 27.2573 10.4923 26.832C10.4923 26.3407 10.683 25.941 11.0643 25.633C11.4016 25.369 11.893 25.237 12.5383 25.237H14.4303V30H13.0883V28.328H12.9343L11.7683 30H10.2283ZM13.0883 27.36V26.293H12.5053C12.3 26.293 12.1496 26.337 12.0543 26.425C11.937 26.535 11.8783 26.6743 11.8783 26.843C11.8783 27.019 11.937 27.151 12.0543 27.239C12.157 27.3197 12.3073 27.36 12.5053 27.36H13.0883Z" fill="#B760E2"/>
<path d="M16.1899 26.513L15.5739 25.677C16.0725 25.281 16.6739 25.083 17.3779 25.083C17.9132 25.083 18.3349 25.1893 18.6429 25.402C19.0022 25.644 19.1819 25.9813 19.1819 26.414C19.1819 26.854 18.9619 27.195 18.5219 27.437C18.7565 27.4957 18.9655 27.602 19.1489 27.756C19.3909 27.976 19.5119 28.2693 19.5119 28.636C19.5119 29.098 19.3285 29.4647 18.9619 29.736C18.5952 30.0147 18.0745 30.154 17.3999 30.154C16.5492 30.154 15.8672 29.89 15.3539 29.362L16.0139 28.548C16.3732 28.8853 16.7985 29.054 17.2899 29.054C17.5979 29.054 17.8142 28.999 17.9389 28.889C18.0635 28.779 18.1259 28.6543 18.1259 28.515C18.1259 28.339 18.0415 28.207 17.8729 28.119C17.7555 28.0603 17.5649 28.031 17.3009 28.031H16.7399V27.063H17.2789C17.5209 27.063 17.6969 27.0263 17.8069 26.953C17.9169 26.8797 17.9719 26.7697 17.9719 26.623C17.9719 26.3003 17.7299 26.139 17.2459 26.139C16.8352 26.139 16.4832 26.2637 16.1899 26.513Z" fill="#B760E2"/>
<path d="M24.2026 25.853V25.237H25.5446V30H24.2026V29.384C23.8433 29.8973 23.3556 30.154 22.7396 30.154C22.0209 30.154 21.4343 29.9083 20.9796 29.417C20.5323 28.9257 20.3086 28.3243 20.3086 27.613C20.3086 26.8943 20.5286 26.293 20.9686 25.809C21.4086 25.325 21.9769 25.083 22.6736 25.083C23.3629 25.083 23.8726 25.3397 24.2026 25.853ZM23.9606 26.656C23.7113 26.3993 23.3959 26.271 23.0146 26.271C22.6333 26.271 22.3179 26.3993 22.0686 26.656C21.8193 26.9127 21.6946 27.2317 21.6946 27.613C21.6946 27.9943 21.8193 28.317 22.0686 28.581C22.3179 28.8377 22.6333 28.966 23.0146 28.966C23.3959 28.966 23.7113 28.8377 23.9606 28.581C24.2099 28.317 24.3346 27.9943 24.3346 27.613C24.3346 27.2317 24.2099 26.9127 23.9606 26.656Z" fill="#B760E2"/>
<path d="M30.234 26.381H28.914V30H27.572V26.381H26.252V25.237H30.234V26.381Z" fill="#B760E2"/>
<path d="M30.9383 25.237H32.2803V26.931H33.3253C33.8826 26.931 34.308 27.0923 34.6013 27.415C34.8433 27.6717 34.9643 28.0127 34.9643 28.438C34.9643 28.9587 34.7956 29.362 34.4583 29.648C34.187 29.8827 33.8313 30 33.3913 30H30.9383V25.237ZM32.2803 28.944H32.9073C33.1346 28.944 33.2996 28.9037 33.4023 28.823C33.5196 28.735 33.5783 28.6067 33.5783 28.438C33.5783 28.284 33.5196 28.1703 33.4023 28.097C33.2996 28.0237 33.1456 27.987 32.9403 27.987H32.2803V28.944Z" fill="#B760E2"/>
<path d="M39.6053 25.369V26.689C39.3047 26.4103 38.938 26.271 38.5053 26.271C38.08 26.271 37.75 26.403 37.5153 26.667C37.2807 26.9237 37.1633 27.239 37.1633 27.613C37.1633 28.0017 37.2917 28.3243 37.5483 28.581C37.8123 28.8377 38.146 28.966 38.5493 28.966C38.9453 28.966 39.2973 28.8267 39.6053 28.548V29.857C39.2093 30.055 38.7987 30.154 38.3733 30.154C37.6327 30.154 37.0203 29.923 36.5363 29.461C36.0303 28.9843 35.7773 28.3757 35.7773 27.635C35.7773 26.8283 36.0523 26.183 36.6023 25.699C37.0643 25.2883 37.6363 25.083 38.3183 25.083C38.7803 25.083 39.2093 25.1783 39.6053 25.369Z" fill="#B760E2"/>
<path d="M40.199 30L41.607 28.218C41.299 28.174 41.0423 28.0493 40.837 27.844C40.5877 27.5947 40.463 27.2573 40.463 26.832C40.463 26.3407 40.6537 25.941 41.035 25.633C41.3723 25.369 41.8637 25.237 42.509 25.237H44.401V30H43.059V28.328H42.905L41.739 30H40.199ZM43.059 27.36V26.293H42.476C42.2707 26.293 42.1203 26.337 42.025 26.425C41.9077 26.535 41.849 26.6743 41.849 26.843C41.849 27.019 41.9077 27.151 42.025 27.239C42.1277 27.3197 42.278 27.36 42.476 27.36H43.059Z" fill="#B760E2"/>
<path d="M12.2128 34.369V35.689C11.9121 35.4103 11.5454 35.271 11.1128 35.271C10.6874 35.271 10.3574 35.403 10.1228 35.667C9.8881 35.9237 9.77077 36.239 9.77077 36.613C9.77077 37.0017 9.8991 37.3243 10.1558 37.581C10.4198 37.8377 10.7534 37.966 11.1568 37.966C11.5528 37.966 11.9048 37.8267 12.2128 37.548V38.857C11.8168 39.055 11.4061 39.154 10.9808 39.154C10.2401 39.154 9.62777 38.923 9.14377 38.461C8.63777 37.9843 8.38477 37.3757 8.38477 36.635C8.38477 35.8283 8.65977 35.183 9.20977 34.699C9.67177 34.2883 10.2438 34.083 10.9258 34.083C11.3878 34.083 11.8168 34.1783 12.2128 34.369Z" fill="#B760E2"/>
<path d="M15.7918 39V34.237H17.1338V35.92H19.0038V34.237H20.3458V39H19.0038V37.064H17.1338V39H15.7918Z" fill="#B760E2"/>
<path d="M25.2768 34.853V34.237H26.6188V39H25.2768V38.384C24.9175 38.8973 24.4298 39.154 23.8138 39.154C23.0951 39.154 22.5085 38.9083 22.0538 38.417C21.6065 37.9257 21.3828 37.3243 21.3828 36.613C21.3828 35.8943 21.6028 35.293 22.0428 34.809C22.4828 34.325 23.0511 34.083 23.7478 34.083C24.4371 34.083 24.9468 34.3397 25.2768 34.853ZM25.0348 35.656C24.7855 35.3993 24.4701 35.271 24.0888 35.271C23.7075 35.271 23.3921 35.3993 23.1428 35.656C22.8935 35.9127 22.7688 36.2317 22.7688 36.613C22.7688 36.9943 22.8935 37.317 23.1428 37.581C23.3921 37.8377 23.7075 37.966 24.0888 37.966C24.4701 37.966 24.7855 37.8377 25.0348 37.581C25.2841 37.317 25.4088 36.9943 25.4088 36.613C25.4088 36.2317 25.2841 35.9127 25.0348 35.656Z" fill="#B760E2"/>
<path d="M27.3923 39L28.2612 34.237H29.2512L30.5602 36.976L31.8693 34.237H32.8592L33.7282 39H32.3862L31.9902 36.415L30.8022 39H30.3183L29.1303 36.415L28.7342 39H27.3923Z" fill="#B760E2"/>
<path d="M34.494 34.237H35.836V37.174L38.036 34.237H39.378V39H38.036V36.063L35.836 39H34.494V34.237Z" fill="#B760E2"/>
<path d="M16 16V19.766L22.277 16H27C28.103 16 29 15.103 29 14V6C29 4.897 28.103 4 27 4H15C13.897 4 13 4.897 13 6V14C13 15.103 13.897 16 15 16H16ZM15 6H27V14H21.723L18 16.234V14H15V6Z" fill="#B760E2"/>
<path d="M31 0H19C17.897 0 17 0.897 17 2H29C30.103 2 31 2.897 31 4V12C32.103 12 33 11.103 33 10V2C33 0.897 32.103 0 31 0Z" fill="#B760E2"/>
</svg>
