<svg width="28" height="28" viewBox="0 0 28 28" fill="none" xmlns="http://www.w3.org/2000/svg">
<path d="M13.298 0.00407432C11.051 0.0311993 6.22009 0.400449 3.51809 2.87932C1.50821 4.87082 0.806465 7.8152 0.724215 11.4561C0.655965 15.0838 0.573715 21.8966 7.14059 23.7516V26.577C7.14059 26.577 7.09946 27.7074 7.84671 27.9393C8.76721 28.2307 9.29134 27.3609 10.1663 26.4264L11.7982 24.5811C16.2913 24.9547 19.7327 24.0937 20.1291 23.966C21.0408 23.6746 26.1762 23.0183 27.0153 16.2047C27.8763 9.16795 26.5962 4.73432 24.2853 2.72882H24.2713C23.574 2.08657 20.7713 0.0443243 14.5098 0.0215743C14.5098 0.0215743 14.0452 -0.00992568 13.298 0.00319932V0.00407432ZM13.375 1.98245C14.0128 1.97807 14.4005 2.0052 14.4005 2.0052C19.7003 2.0192 22.23 3.61432 22.8267 4.15157C24.7727 5.81932 25.7755 9.81633 25.0413 15.6911C24.344 21.3873 20.179 21.7478 19.4081 21.9937C19.08 22.0987 16.049 22.8459 12.2305 22.6001C12.2305 22.6001 9.38671 26.0318 8.49771 26.9156C8.35684 27.0704 8.19234 27.1159 8.08734 27.0932C7.93684 27.0564 7.89134 26.8701 7.90009 26.6146L7.92721 21.9254C2.35784 20.3855 2.68596 14.5746 2.74546 11.5392C2.81371 8.50382 3.38334 6.02057 5.07909 4.33882C7.36196 2.2747 11.464 1.99645 13.3732 1.98245H13.375ZM13.795 5.01695C13.7491 5.01649 13.7036 5.0251 13.6612 5.0423C13.6187 5.05949 13.58 5.08493 13.5474 5.11714C13.5148 5.14935 13.4888 5.1877 13.4711 5.22997C13.4534 5.27224 13.4442 5.31761 13.4441 5.36345C13.4441 5.55945 13.6033 5.71432 13.795 5.71432C14.6625 5.69783 15.5248 5.85325 16.332 6.17162C17.1392 6.49 17.8754 6.96503 18.4981 7.56932C19.7695 8.80395 20.389 10.4629 20.4126 12.6321C20.4126 12.8237 20.5675 12.983 20.7635 12.983V12.9689C20.8558 12.9692 20.9446 12.9329 21.0103 12.868C21.076 12.8031 21.1134 12.7148 21.1143 12.6224C21.1568 11.6015 20.9913 10.5825 20.6277 9.62747C20.2641 8.67245 19.7102 7.80134 18.9995 7.06707C17.6143 5.71345 15.8591 5.01607 13.795 5.01607V5.01695ZM9.18284 5.81932C8.93517 5.78314 8.68257 5.83285 8.46709 5.9602H8.44871C7.94844 6.25345 7.49778 6.62408 7.11346 7.05832C6.79409 7.42758 6.62084 7.8012 6.57534 8.16082C6.54821 8.3752 6.56659 8.58957 6.63046 8.79432L6.65321 8.80832C7.01284 9.86532 7.48271 10.8821 8.05671 11.8393C8.79611 13.1842 9.70605 14.4279 10.764 15.5397L10.7955 15.5852L10.8453 15.622L10.8768 15.6587L10.9136 15.6902C12.0294 16.7512 13.2762 17.6654 14.6236 18.4106C16.1636 19.2488 17.0981 19.6452 17.659 19.8097V19.8184C17.8235 19.8683 17.9731 19.8911 18.1236 19.8911C18.6016 19.8561 19.0541 19.662 19.409 19.3398C19.8412 18.9554 20.2077 18.5029 20.494 18.0002V17.9914C20.7626 17.4857 20.6716 17.0071 20.284 16.6833C19.5077 16.0048 18.6682 15.4021 17.7771 14.8834C17.1803 14.5597 16.574 14.7557 16.3281 15.0838L15.804 15.7444C15.5353 16.0726 15.0471 16.0271 15.0471 16.0271L15.0331 16.0358C11.3922 15.1057 10.421 11.4193 10.421 11.4193C10.421 11.4193 10.3755 10.9179 10.7123 10.6624L11.3686 10.1339C11.6827 9.87845 11.9015 9.27295 11.5646 8.67532C11.0496 7.78296 10.4482 6.94331 9.76909 6.16845C9.62063 5.98578 9.41235 5.86149 9.18109 5.81757L9.18284 5.81932ZM14.4005 6.85882C13.9358 6.85882 13.9358 7.56057 14.4048 7.56057C14.9826 7.56995 15.5528 7.69308 16.083 7.92294C16.6131 8.1528 17.0927 8.48488 17.4945 8.9002C17.8609 9.30446 18.1425 9.77816 18.3226 10.2932C18.5027 10.8083 18.5775 11.3543 18.5427 11.8988C18.5443 11.991 18.5819 12.0788 18.6475 12.1436C18.7131 12.2084 18.8014 12.2449 18.8936 12.2453L18.9076 12.2637C19.0004 12.263 19.0893 12.2258 19.1549 12.1602C19.2206 12.0945 19.2578 12.0057 19.2585 11.9128C19.29 10.5224 18.8577 9.35607 18.0098 8.42157C17.1576 7.48707 15.9685 6.96295 14.4503 6.85882H14.4005ZM14.9753 8.74532C14.4967 8.73132 14.4783 9.44707 14.9526 9.46107C16.1058 9.52057 16.6658 10.1033 16.7393 11.3021C16.7409 11.3931 16.7781 11.4798 16.8429 11.5438C16.9076 11.6077 16.9948 11.6438 17.0858 11.6442H17.0998C17.1466 11.6422 17.1925 11.6309 17.2349 11.6109C17.2773 11.591 17.3153 11.5628 17.3466 11.528C17.378 11.4932 17.4021 11.4526 17.4176 11.4084C17.433 11.3642 17.4395 11.3173 17.4367 11.2706C17.3545 9.70782 16.5022 8.82757 14.9893 8.7462H14.9753V8.74532Z" fill="#B760E2"/>
</svg>
