<svg width="29" height="28" viewBox="0 0 29 28" fill="none" xmlns="http://www.w3.org/2000/svg">
<path d="M12.0545 16.3511C13.8321 18.129 15.9829 19.5017 18.356 20.3727L21.5664 17.8539C21.6615 17.7893 21.7744 17.7547 21.8899 17.7547C22.0055 17.7547 22.1184 17.7893 22.2135 17.8539L28.1744 21.6404C28.4007 21.7746 28.5923 21.9588 28.734 22.1784C28.8757 22.3981 28.9636 22.6473 28.9909 22.9062C29.0182 23.1652 28.984 23.4268 28.891 23.6705C28.7981 23.9142 28.649 24.1332 28.4555 24.3103L25.6623 27.0306C25.2623 27.4202 24.7707 27.7062 24.2313 27.863C23.692 28.0197 23.1216 28.0424 22.5712 27.9289C17.0805 26.8109 12.0197 24.1924 7.96699 20.3727C4.00425 16.515 1.26206 11.6064 0.0730514 6.24247C-0.0444071 5.70819 -0.0198919 5.15305 0.144221 4.63086C0.308334 4.10867 0.60648 3.63713 1.00976 3.26194L3.90506 0.508107C4.08423 0.326578 4.30272 0.187364 4.54419 0.10089C4.78566 0.0144149 5.04384 -0.01708 5.29941 0.00876309C5.55497 0.0346062 5.80129 0.117118 6.01993 0.250119C6.23857 0.383121 6.42386 0.563166 6.56192 0.776773L10.5302 6.5783C10.5986 6.6694 10.6356 6.77977 10.6356 6.89314C10.6356 7.00652 10.5986 7.11689 10.5302 7.20799L7.91589 10.3061C8.8233 12.5989 10.237 14.6638 12.0545 16.3511V16.3511Z" fill="#B660E2"/>
</svg>
