<svg width="49" height="40" viewBox="0 0 49 40" fill="none" xmlns="http://www.w3.org/2000/svg">
<path d="M17.2101 16V19.766L23.4871 16H28.2101C29.3131 16 30.2101 15.103 30.2101 14V6C30.2101 4.897 29.3131 4 28.2101 4H16.2101C15.1071 4 14.2101 4.897 14.2101 6V14C14.2101 15.103 15.1071 16 16.2101 16H17.2101ZM16.2101 6H28.2101V14H22.9331L19.2101 16.234V14H16.2101V6Z" fill="#B760E2"/>
<path d="M32.2101 0H20.2101C19.1071 0 18.2101 0.897 18.2101 2H30.2101C31.3131 2 32.2101 2.897 32.2101 4V12C33.3131 12 34.2101 11.103 34.2101 10V2C34.2101 0.897 33.3131 0 32.2101 0Z" fill="#B760E2"/>
<path d="M0.968813 26.513L0.352813 25.677C0.851479 25.281 1.45281 25.083 2.15681 25.083C2.69215 25.083 3.11381 25.1893 3.42181 25.402C3.78115 25.644 3.96081 25.9813 3.96081 26.414C3.96081 26.854 3.74081 27.195 3.30081 27.437C3.53548 27.4957 3.74448 27.602 3.92781 27.756C4.16981 27.976 4.29081 28.2693 4.29081 28.636C4.29081 29.098 4.10748 29.4647 3.74081 29.736C3.37415 30.0147 2.85348 30.154 2.17881 30.154C1.32815 30.154 0.646146 29.89 0.132812 29.362L0.792813 28.548C1.15215 28.8853 1.57748 29.054 2.06881 29.054C2.37681 29.054 2.59315 28.999 2.71781 28.889C2.84248 28.779 2.90481 28.6543 2.90481 28.515C2.90481 28.339 2.82048 28.207 2.65181 28.119C2.53448 28.0603 2.34381 28.031 2.07981 28.031H1.51881V27.063H2.05781C2.29981 27.063 2.47581 27.0263 2.58581 26.953C2.69581 26.8797 2.75081 26.7697 2.75081 26.623C2.75081 26.3003 2.50881 26.139 2.02481 26.139C1.61415 26.139 1.26215 26.2637 0.968813 26.513Z" fill="#B760E2"/>
<path d="M5.32954 25.237H7.43054C7.93654 25.237 8.31421 25.3323 8.56354 25.523C8.87154 25.7577 9.02554 26.0693 9.02554 26.458C9.02554 26.6633 8.96687 26.8577 8.84954 27.041C8.73954 27.217 8.57821 27.349 8.36554 27.437C8.60021 27.481 8.80921 27.5837 8.99254 27.745C9.23454 27.965 9.35554 28.262 9.35554 28.636C9.35554 29.0833 9.18687 29.4353 8.84954 29.692C8.57087 29.8973 8.21521 30 7.78254 30H5.32954V25.237ZM6.67154 27.129H7.28754C7.42687 27.129 7.54421 27.0997 7.63954 27.041C7.75687 26.9677 7.81554 26.8577 7.81554 26.711C7.81554 26.557 7.76421 26.4433 7.66154 26.37C7.58821 26.3187 7.45621 26.293 7.26554 26.293H6.67154V27.129ZM6.67154 28.944H7.29854C7.52587 28.944 7.69087 28.9037 7.79354 28.823C7.91087 28.735 7.96954 28.6067 7.96954 28.438C7.96954 28.284 7.91087 28.1703 7.79354 28.097C7.69087 28.0237 7.53687 27.987 7.33154 27.987H6.67154V28.944Z" fill="#B760E2"/>
<path d="M10.1701 25.479L11.3361 22.52L12.5681 22.663L11.0171 25.578L10.1701 25.479Z" fill="#B760E2"/>
<path d="M13.269 30L14.677 28.218C14.369 28.174 14.1123 28.0493 13.907 27.844C13.6576 27.5947 13.533 27.2573 13.533 26.832C13.533 26.3407 13.7236 25.941 14.105 25.633C14.4423 25.369 14.9336 25.237 15.579 25.237H17.471V30H16.129V28.328H15.975L14.809 30H13.269ZM16.129 27.36V26.293H15.546C15.3406 26.293 15.1903 26.337 15.095 26.425C14.9776 26.535 14.919 26.6743 14.919 26.843C14.919 27.019 14.9776 27.151 15.095 27.239C15.1976 27.3197 15.348 27.36 15.546 27.36H16.129Z" fill="#B760E2"/>
<path d="M19.2305 26.513L18.6145 25.677C19.1132 25.281 19.7145 25.083 20.4185 25.083C20.9539 25.083 21.3755 25.1893 21.6835 25.402C22.0429 25.644 22.2225 25.9813 22.2225 26.414C22.2225 26.854 22.0025 27.195 21.5625 27.437C21.7972 27.4957 22.0062 27.602 22.1895 27.756C22.4315 27.976 22.5525 28.2693 22.5525 28.636C22.5525 29.098 22.3692 29.4647 22.0025 29.736C21.6359 30.0147 21.1152 30.154 20.4405 30.154C19.5899 30.154 18.9079 29.89 18.3945 29.362L19.0545 28.548C19.4139 28.8853 19.8392 29.054 20.3305 29.054C20.6385 29.054 20.8549 28.999 20.9795 28.889C21.1042 28.779 21.1665 28.6543 21.1665 28.515C21.1665 28.339 21.0822 28.207 20.9135 28.119C20.7962 28.0603 20.6055 28.031 20.3415 28.031H19.7805V27.063H20.3195C20.5615 27.063 20.7375 27.0263 20.8475 26.953C20.9575 26.8797 21.0125 26.7697 21.0125 26.623C21.0125 26.3003 20.7705 26.139 20.2865 26.139C19.8759 26.139 19.5239 26.2637 19.2305 26.513Z" fill="#B760E2"/>
<path d="M27.2433 25.853V25.237H28.5853V30H27.2433V29.384C26.8839 29.8973 26.3963 30.154 25.7803 30.154C25.0616 30.154 24.4749 29.9083 24.0203 29.417C23.5729 28.9257 23.3493 28.3243 23.3493 27.613C23.3493 26.8943 23.5693 26.293 24.0093 25.809C24.4493 25.325 25.0176 25.083 25.7143 25.083C26.4036 25.083 26.9133 25.3397 27.2433 25.853ZM27.0013 26.656C26.7519 26.3993 26.4366 26.271 26.0553 26.271C25.6739 26.271 25.3586 26.3993 25.1093 26.656C24.8599 26.9127 24.7353 27.2317 24.7353 27.613C24.7353 27.9943 24.8599 28.317 25.1093 28.581C25.3586 28.8377 25.6739 28.966 26.0553 28.966C26.4366 28.966 26.7519 28.8377 27.0013 28.581C27.2506 28.317 27.3753 27.9943 27.3753 27.613C27.3753 27.2317 27.2506 26.9127 27.0013 26.656Z" fill="#B760E2"/>
<path d="M33.2747 26.381H31.9547V30H30.6127V26.381H29.2927V25.237H33.2747V26.381Z" fill="#B760E2"/>
<path d="M33.979 25.237H35.321V28.174L37.521 25.237H38.863V30H37.521V27.063L35.321 30H33.979V25.237Z" fill="#B760E2"/>
<path d="M43.7202 25.369V26.689C43.4196 26.4103 43.0529 26.271 42.6202 26.271C42.1949 26.271 41.8649 26.403 41.6302 26.667C41.3956 26.9237 41.2782 27.239 41.2782 27.613C41.2782 28.0017 41.4066 28.3243 41.6632 28.581C41.9272 28.8377 42.2609 28.966 42.6642 28.966C43.0602 28.966 43.4122 28.8267 43.7202 28.548V29.857C43.3242 30.055 42.9136 30.154 42.4882 30.154C41.7476 30.154 41.1352 29.923 40.6512 29.461C40.1452 28.9843 39.8922 28.3757 39.8922 27.635C39.8922 26.8283 40.1672 26.183 40.7172 25.699C41.1792 25.2883 41.7512 25.083 42.4332 25.083C42.8952 25.083 43.3242 25.1783 43.7202 25.369Z" fill="#B760E2"/>
<path d="M44.3139 30L45.7219 28.218C45.4139 28.174 45.1572 28.0493 44.9519 27.844C44.7025 27.5947 44.5779 27.2573 44.5779 26.832C44.5779 26.3407 44.7686 25.941 45.1499 25.633C45.4872 25.369 45.9785 25.237 46.6239 25.237H48.5159V30H47.1739V28.328H47.0199L45.8539 30H44.3139ZM47.1739 27.36V26.293H46.5909C46.3855 26.293 46.2352 26.337 46.1399 26.425C46.0225 26.535 45.9639 26.6743 45.9639 26.843C45.9639 27.019 46.0225 27.151 46.1399 27.239C46.2425 27.3197 46.3929 27.36 46.5909 27.36H47.1739Z" fill="#B760E2"/>
<path d="M9.48737 35.513L8.87137 34.677C9.37003 34.281 9.97137 34.083 10.6754 34.083C11.2107 34.083 11.6324 34.1893 11.9404 34.402C12.2997 34.644 12.4794 34.9813 12.4794 35.414C12.4794 35.854 12.2594 36.195 11.8194 36.437C12.054 36.4957 12.263 36.602 12.4464 36.756C12.6884 36.976 12.8094 37.2693 12.8094 37.636C12.8094 38.098 12.626 38.4647 12.2594 38.736C11.8927 39.0147 11.372 39.154 10.6974 39.154C9.8467 39.154 9.1647 38.89 8.65137 38.362L9.31137 37.548C9.6707 37.8853 10.096 38.054 10.5874 38.054C10.8954 38.054 11.1117 37.999 11.2364 37.889C11.361 37.779 11.4234 37.6543 11.4234 37.515C11.4234 37.339 11.339 37.207 11.1704 37.119C11.053 37.0603 10.8624 37.031 10.5984 37.031H10.0374V36.063H10.5764C10.8184 36.063 10.9944 36.0263 11.1044 35.953C11.2144 35.8797 11.2694 35.7697 11.2694 35.623C11.2694 35.3003 11.0274 35.139 10.5434 35.139C10.1327 35.139 9.7807 35.2637 9.48737 35.513Z" fill="#B760E2"/>
<path d="M16.4155 39V34.237H17.7575V35.92H19.6275V34.237H20.9695V39H19.6275V37.064H17.7575V39H16.4155Z" fill="#B760E2"/>
<path d="M25.9005 34.853V34.237H27.2425V39H25.9005V38.384C25.5412 38.8973 25.0535 39.154 24.4375 39.154C23.7188 39.154 23.1322 38.9083 22.6775 38.417C22.2302 37.9257 22.0065 37.3243 22.0065 36.613C22.0065 35.8943 22.2265 35.293 22.6665 34.809C23.1065 34.325 23.6748 34.083 24.3715 34.083C25.0608 34.083 25.5705 34.3397 25.9005 34.853ZM25.6585 35.656C25.4092 35.3993 25.0938 35.271 24.7125 35.271C24.3312 35.271 24.0158 35.3993 23.7665 35.656C23.5172 35.9127 23.3925 36.2317 23.3925 36.613C23.3925 36.9943 23.5172 37.317 23.7665 37.581C24.0158 37.8377 24.3312 37.966 24.7125 37.966C25.0938 37.966 25.4092 37.8377 25.6585 37.581C25.9078 37.317 26.0325 36.9943 26.0325 36.613C26.0325 36.2317 25.9078 35.9127 25.6585 35.656Z" fill="#B760E2"/>
<path d="M28.0159 39L28.8849 34.237H29.8749L31.1839 36.976L32.4929 34.237H33.4829L34.3519 39H33.0099L32.6139 36.415L31.4259 39H30.9419L29.7539 36.415L29.3579 39H28.0159Z" fill="#B760E2"/>
<path d="M35.1176 34.237H36.4596V37.174L38.6596 34.237H40.0016V39H38.6596V36.063L36.4596 39H35.1176V34.237Z" fill="#B760E2"/>
</svg>
