<svg width="227" height="77" viewBox="0 0 227 77" fill="none" xmlns="http://www.w3.org/2000/svg">
<path d="M216.064 56.9523L215.329 57.6294C215.919 58.2711 216.169 58.9167 216.169 59.5923C216.169 60.5213 215.867 61.2527 215.268 61.8543C214.642 62.4532 213.707 62.8163 212.32 62.8163C210.811 62.8163 209.569 62.4213 208.546 61.6673L208.527 61.6533L208.507 61.6403C207.685 61.0924 206.86 60.2395 206.045 59.0329L205.358 58.0141L204.5 58.8946L200.9 62.5906L200.33 63.1762L200.79 63.8517C201.82 65.3615 203.077 66.6206 204.561 67.6214L204.566 67.6244C206.281 68.7679 208.168 69.5152 210.216 69.8673V74.2803V75.2803H211.216H215.152H216.152V74.2803V69.7024C218.127 69.1875 219.828 68.2334 221.23 66.8333C223.359 64.7717 224.408 62.1212 224.408 58.9683C224.408 56.2867 223.497 54.0303 221.646 52.2881L221.638 52.2805L221.629 52.273C221.29 51.9677 220.935 51.6794 220.563 51.408C220.153 51.0755 219.684 50.7892 219.166 50.5441C218.737 50.3002 218.362 50.103 218.047 49.9605C217.713 49.7785 217.241 49.5621 216.654 49.3145C216.108 49.072 215.732 48.9079 215.544 48.8319C214.486 48.3581 213.642 47.9632 213.008 47.6459C212.35 47.3172 211.972 47.0982 211.808 46.9779L211.807 46.9769C211.188 46.5249 210.968 46.0541 210.968 45.5283C210.968 44.8851 211.176 44.3913 211.588 43.9794L211.595 43.9719L211.602 43.9642C212.09 43.455 212.877 43.1203 214.145 43.1203C215.751 43.1203 217.161 43.8119 218.409 45.344L219.199 46.3128L219.971 45.3301L223.139 41.2981L223.659 40.6367L223.096 40.0114C222.144 38.9535 220.96 38.0535 219.561 37.3032L219.549 37.2963L219.536 37.2899C218.438 36.7409 217.309 36.3722 216.152 36.1893V32.2803V31.2803H215.152H211.216H210.216V32.2803V36.3068C208.34 36.8637 206.725 37.8748 205.391 39.3333L205.385 39.34L205.379 39.3467C203.77 41.17 202.968 43.3604 202.968 45.8643C202.968 48.3798 203.812 50.4941 205.538 52.1113C207.044 53.5458 209.299 54.8325 212.224 56.0034C213.164 56.4114 213.899 56.7605 214.436 57.0516C215.009 57.3619 215.261 57.5557 215.33 57.6306L216.064 56.9523ZM216.064 56.9523C215.68 56.5363 214.528 55.9123 212.608 55.0803L207.952 62.4723C209.169 63.3683 210.624 63.8163 212.32 63.8163C213.888 63.8163 215.104 63.4003 215.968 62.5683C216.768 61.7683 217.169 60.7763 217.169 59.5923C217.169 58.6323 216.801 57.7523 216.064 56.9523ZM218.502 43.9628C217.243 42.7345 215.79 42.1203 214.145 42.1203C212.704 42.1203 211.616 42.5043 210.88 43.2723C210.272 43.8803 209.968 44.6323 209.968 45.5283C209.968 46.4243 210.384 47.1763 211.216 47.7843C211.696 48.1363 213.008 48.7923 215.152 49.7523C215.312 49.8163 215.68 49.9763 216.257 50.2323C216.865 50.4883 217.312 50.6963 217.6 50.8563C217.888 50.9843 218.257 51.1763 218.704 51.4323C219.184 51.6563 219.6 51.9123 219.952 52.2003C220.305 52.4563 220.64 52.7283 220.96 53.0163C222.592 54.5523 223.408 56.5363 223.408 58.9683C223.408 61.8803 222.449 64.2643 220.529 66.1203L218.502 43.9628ZM218.502 43.9628L218.398 44.0945L219.184 44.7123L219.96 44.0807C219.912 44.0224 219.864 43.9649 219.816 43.9083L222.352 40.6803C221.488 39.7203 220.4 38.8883 219.089 38.1843C217.809 37.5443 216.496 37.1763 215.152 37.0803L218.502 43.9628ZM11.888 69.0003V70.0003H12.888H25.368H26.368V69.0003V4.96832V3.96832H25.368H3.672H2.672V4.96832V15.7203V16.7203H3.672H11.888V69.0003ZM81.937 4.96832V3.96832H80.937H51.369H50.5696L50.3935 4.74814L42.8095 38.3481L42.2962 40.6222L44.2977 39.4269C48.7766 36.752 53.2095 35.4403 57.609 35.4403C61.5882 35.4403 64.66 36.4767 66.9303 38.4533C69.1916 40.4851 70.337 43.147 70.337 46.5363C70.337 50.1689 69.2843 53.0107 67.2512 55.1604C65.0386 57.4889 62.0542 58.6883 58.185 58.6883C55.0924 58.6883 52.152 57.9323 49.3505 56.4097L49.3442 56.4063L49.3378 56.4029C46.9205 55.1338 44.8249 53.3166 43.0515 50.9316L41.9669 49.4731L41.3154 51.1699L37.1874 61.9219L36.9477 62.5463L37.4333 63.0063C39.9318 65.3733 42.6061 67.2579 45.4571 68.6504C49.2832 70.5296 54.0541 71.4403 59.721 71.4403C67.2906 71.4403 73.4206 69.195 77.9961 64.6194C82.5557 60.0598 84.817 54.2278 84.817 47.2083C84.817 40.6003 82.8608 35.2111 78.8685 31.1497C74.4924 26.6402 68.7151 24.4163 61.641 24.4163C60.7373 24.4163 59.7287 24.4832 58.6179 24.6141L60.4222 16.7203H80.937H81.937V15.7203V4.96832ZM99.1051 62.2361L99.105 62.2361L99.1125 62.2452C104.142 68.3332 110.268 71.4403 117.451 71.4403C124.635 71.4403 130.732 68.3323 135.699 62.2402C140.753 56.055 143.219 47.6123 143.219 37.0323C143.219 26.3929 140.755 17.9475 135.698 11.8237C130.734 5.67064 124.638 2.52832 117.451 2.52832C110.264 2.52832 104.137 5.67129 99.1092 11.8235L99.1084 11.8245C94.1169 17.9474 91.6835 26.3594 91.6835 36.9363C91.6835 47.5763 94.1164 56.0501 99.1051 62.2361ZM125.065 20.4958L125.071 20.504L125.076 20.5121C127.466 23.9774 128.74 29.3978 128.74 36.9363C128.74 44.4759 127.498 49.9378 125.161 53.4729C122.767 57.0948 120.189 58.6883 117.451 58.6883C114.714 58.6883 112.136 57.0948 109.742 53.4729C107.405 49.9378 106.163 44.4759 106.163 36.9363C106.163 29.3957 107.405 23.9713 109.736 20.5037C112.2 16.8701 114.781 15.2803 117.451 15.2803C120.118 15.2803 122.666 16.8661 125.065 20.4958ZM179.628 20.4958L179.633 20.504L179.639 20.5121C182.029 23.9774 183.302 29.3978 183.302 36.9363C183.302 44.4759 182.061 49.9378 179.724 53.4729C177.33 57.0948 174.751 58.6883 172.014 58.6883C169.277 58.6883 166.698 57.0948 164.304 53.4729C161.967 49.9378 160.726 44.4759 160.726 36.9363C160.726 29.3957 161.968 23.9713 164.299 20.5037C166.763 16.8701 169.344 15.2803 172.014 15.2803C174.681 15.2803 177.229 16.8661 179.628 20.4958ZM153.668 62.2361L153.675 62.2452C158.704 68.3332 164.831 71.4403 172.014 71.4403C179.198 71.4403 185.295 68.3323 190.261 62.2402C195.315 56.055 197.782 47.6123 197.782 37.0323C197.782 26.3929 195.317 17.9475 190.26 11.8237C185.296 5.67064 179.2 2.52832 172.014 2.52832C164.827 2.52832 158.699 5.67129 153.672 11.8235L153.671 11.8245C148.679 17.9474 146.246 26.3594 146.246 36.9363C146.246 47.5763 148.679 56.0501 153.668 62.2361Z" stroke="url(#paint0_linear_130:12)" stroke-width="2"/>
<defs>
<linearGradient id="paint0_linear_130:12" x1="191.867" y1="39.598" x2="11.8979" y2="26.3988" gradientUnits="userSpaceOnUse">
<stop stop-color="#D996FB"/>
<stop offset="1" stop-color="#8CB8FA"/>
</linearGradient>
</defs>
</svg>
