<svg width="51" height="33" viewBox="0 0 51 33" fill="none" xmlns="http://www.w3.org/2000/svg">
<path d="M5.57595 31.0003V32.0003H6.57595H12.0359H13.0359V31.0003V2.98633V1.98633H12.0359H2.54395H1.54395V2.98633V7.69033V8.69033H2.54395H5.57595V31.0003ZM21.7361 31.0003V32.0003H22.7361H28.1961H29.1961V31.0003V2.98633V1.98633H28.1961H18.7041H17.7041V2.98633V7.69033V8.69033H18.7041H21.7361V31.0003ZM36.8232 24.2083V25.2083H37.8232H40.5672V27.9523V28.9523H41.5672H44.4952H45.4952V27.9523V25.2083H48.2392H49.2392V24.2083V21.5203V20.5203H48.2392H45.4952V17.7763V16.7763H44.4952H41.5672H40.5672V17.7763V20.5203H37.8232H36.8232V21.5203V24.2083Z" stroke="white" stroke-width="2"/>
<path d="M5.57595 31.0003V32.0003H6.57595H12.0359H13.0359V31.0003V2.98633V1.98633H12.0359H2.54395H1.54395V2.98633V7.69033V8.69033H2.54395H5.57595V31.0003ZM21.7361 31.0003V32.0003H22.7361H28.1961H29.1961V31.0003V2.98633V1.98633H28.1961H18.7041H17.7041V2.98633V7.69033V8.69033H18.7041H21.7361V31.0003ZM36.8232 24.2083V25.2083H37.8232H40.5672V27.9523V28.9523H41.5672H44.4952H45.4952V27.9523V25.2083H48.2392H49.2392V24.2083V21.5203V20.5203H48.2392H45.4952V17.7763V16.7763H44.4952H41.5672H40.5672V17.7763V20.5203H37.8232H36.8232V21.5203V24.2083Z" stroke="url(#paint0_linear_253_11)" stroke-width="2"/>
<defs>
<linearGradient id="paint0_linear_253_11" x1="41.6801" y1="17.268" x2="4.109" y2="15.8208" gradientUnits="userSpaceOnUse">
<stop stop-color="#D996FB"/>
<stop offset="1" stop-color="#8CB8FA"/>
</linearGradient>
</defs>
</svg>
