<svg width="249" height="72" viewBox="0 0 249 72" fill="none" xmlns="http://www.w3.org/2000/svg">
<path d="M10.888 68.0003V69.0003H11.888H24.368H25.368V68.0003V3.96832V2.96832H24.368H2.672H1.672V3.96832V14.7203V15.7203H2.672H10.888V68.0003ZM46.7301 61.2361L46.73 61.2361L46.7375 61.2452C51.7668 67.3332 57.8934 70.4403 65.0765 70.4403C72.2601 70.4403 78.3566 67.3326 83.3228 61.2411C88.3774 55.0558 90.8445 46.6128 90.8445 36.0323C90.8445 25.3931 88.3798 16.9479 83.3233 10.8241C78.3592 4.67077 72.263 1.52832 65.0765 1.52832C57.8892 1.52832 51.7618 4.67129 46.7342 10.8235L46.7334 10.8245C41.7419 16.9474 39.3085 25.3594 39.3085 35.9363C39.3085 46.5763 41.7414 55.0501 46.7301 61.2361ZM72.6903 19.4958L72.6957 19.504L72.7013 19.5121C75.0912 22.9774 76.3645 28.3978 76.3645 35.9363C76.3645 43.4759 75.123 48.9378 72.7863 52.4729C70.3921 56.0948 67.8135 57.6883 65.0765 57.6883C62.3395 57.6883 59.7609 56.0948 57.3667 52.4729C55.03 48.9378 53.7885 43.4759 53.7885 35.9363C53.7885 28.3961 55.0303 22.9719 57.361 19.5044C59.8251 15.8702 62.4062 14.2803 65.0765 14.2803C67.743 14.2803 70.291 15.8661 72.6903 19.4958ZM101.293 61.2361L101.293 61.2361L101.3 61.2452C106.329 67.3332 112.456 70.4403 119.639 70.4403C126.823 70.4403 132.92 67.3323 137.886 61.2402C142.94 55.055 145.407 46.6123 145.407 36.0323C145.407 25.3929 142.942 16.9475 137.885 10.8237C132.921 4.67064 126.825 1.52832 119.639 1.52832C112.452 1.52832 106.324 4.67129 101.297 10.8235L101.296 10.8245C96.3044 16.9474 93.871 25.3594 93.871 35.9363C93.871 46.5763 96.3039 55.0501 101.293 61.2361ZM127.253 19.4958L127.258 19.504L127.264 19.5121C129.654 22.9774 130.927 28.3978 130.927 35.9363C130.927 43.4759 129.686 48.9378 127.349 52.4729C124.955 56.0948 122.376 57.6883 119.639 57.6883C116.902 57.6883 114.323 56.0948 111.929 52.4729C109.592 48.9378 108.351 43.4759 108.351 35.9363C108.351 28.3957 109.593 22.9713 111.924 19.5037C114.388 15.8701 116.969 14.2803 119.639 14.2803C122.306 14.2803 124.854 15.8661 127.253 19.4958ZM181.815 19.4958L181.821 19.504L181.826 19.5121C184.216 22.9774 185.49 28.3978 185.49 35.9363C185.49 43.4759 184.248 48.9378 181.911 52.4729C179.517 56.0948 176.939 57.6883 174.201 57.6883C171.464 57.6883 168.886 56.0948 166.492 52.4729C164.155 48.9378 162.913 43.4759 162.913 35.9363C162.913 28.3957 164.155 22.9713 166.486 19.5037C168.95 15.8701 171.531 14.2803 174.201 14.2803C176.868 14.2803 179.416 15.8661 181.815 19.4958ZM155.855 61.2361L155.863 61.2452C160.892 67.3332 167.018 70.4403 174.201 70.4403C181.385 70.4403 187.482 67.3323 192.449 61.2402C197.503 55.055 199.969 46.6123 199.969 36.0323C199.969 25.3929 197.505 16.9475 192.448 10.8237C187.484 4.67064 181.388 1.52832 174.201 1.52832C167.014 1.52832 160.887 4.67129 155.859 10.8235L155.858 10.8245C150.867 16.9474 148.434 25.3594 148.434 35.9363C148.434 46.5763 150.866 55.0501 155.855 61.2361ZM224.49 54.4163V55.4163H225.49H231.978V61.9043V62.9043H232.978H238.834H239.834V61.9043V55.4163H246.322H247.322V54.4163V49.0403V48.0403H246.322H239.834V41.5523V40.5523H238.834H232.978H231.978V41.5523V48.0403H225.49H224.49V49.0403V54.4163Z" stroke="white" stroke-width="2"/>
<path d="M10.888 68.0003V69.0003H11.888H24.368H25.368V68.0003V3.96832V2.96832H24.368H2.672H1.672V3.96832V14.7203V15.7203H2.672H10.888V68.0003ZM46.7301 61.2361L46.73 61.2361L46.7375 61.2452C51.7668 67.3332 57.8934 70.4403 65.0765 70.4403C72.2601 70.4403 78.3566 67.3326 83.3228 61.2411C88.3774 55.0558 90.8445 46.6128 90.8445 36.0323C90.8445 25.3931 88.3798 16.9479 83.3233 10.8241C78.3592 4.67077 72.263 1.52832 65.0765 1.52832C57.8892 1.52832 51.7618 4.67129 46.7342 10.8235L46.7334 10.8245C41.7419 16.9474 39.3085 25.3594 39.3085 35.9363C39.3085 46.5763 41.7414 55.0501 46.7301 61.2361ZM72.6903 19.4958L72.6957 19.504L72.7013 19.5121C75.0912 22.9774 76.3645 28.3978 76.3645 35.9363C76.3645 43.4759 75.123 48.9378 72.7863 52.4729C70.3921 56.0948 67.8135 57.6883 65.0765 57.6883C62.3395 57.6883 59.7609 56.0948 57.3667 52.4729C55.03 48.9378 53.7885 43.4759 53.7885 35.9363C53.7885 28.3961 55.0303 22.9719 57.361 19.5044C59.8251 15.8702 62.4062 14.2803 65.0765 14.2803C67.743 14.2803 70.291 15.8661 72.6903 19.4958ZM101.293 61.2361L101.293 61.2361L101.3 61.2452C106.329 67.3332 112.456 70.4403 119.639 70.4403C126.823 70.4403 132.92 67.3323 137.886 61.2402C142.94 55.055 145.407 46.6123 145.407 36.0323C145.407 25.3929 142.942 16.9475 137.885 10.8237C132.921 4.67064 126.825 1.52832 119.639 1.52832C112.452 1.52832 106.324 4.67129 101.297 10.8235L101.296 10.8245C96.3044 16.9474 93.871 25.3594 93.871 35.9363C93.871 46.5763 96.3039 55.0501 101.293 61.2361ZM127.253 19.4958L127.258 19.504L127.264 19.5121C129.654 22.9774 130.927 28.3978 130.927 35.9363C130.927 43.4759 129.686 48.9378 127.349 52.4729C124.955 56.0948 122.376 57.6883 119.639 57.6883C116.902 57.6883 114.323 56.0948 111.929 52.4729C109.592 48.9378 108.351 43.4759 108.351 35.9363C108.351 28.3957 109.593 22.9713 111.924 19.5037C114.388 15.8701 116.969 14.2803 119.639 14.2803C122.306 14.2803 124.854 15.8661 127.253 19.4958ZM181.815 19.4958L181.821 19.504L181.826 19.5121C184.216 22.9774 185.49 28.3978 185.49 35.9363C185.49 43.4759 184.248 48.9378 181.911 52.4729C179.517 56.0948 176.939 57.6883 174.201 57.6883C171.464 57.6883 168.886 56.0948 166.492 52.4729C164.155 48.9378 162.913 43.4759 162.913 35.9363C162.913 28.3957 164.155 22.9713 166.486 19.5037C168.95 15.8701 171.531 14.2803 174.201 14.2803C176.868 14.2803 179.416 15.8661 181.815 19.4958ZM155.855 61.2361L155.863 61.2452C160.892 67.3332 167.018 70.4403 174.201 70.4403C181.385 70.4403 187.482 67.3323 192.449 61.2402C197.503 55.055 199.969 46.6123 199.969 36.0323C199.969 25.3929 197.505 16.9475 192.448 10.8237C187.484 4.67064 181.388 1.52832 174.201 1.52832C167.014 1.52832 160.887 4.67129 155.859 10.8235L155.858 10.8245C150.867 16.9474 148.434 25.3594 148.434 35.9363C148.434 46.5763 150.866 55.0501 155.855 61.2361ZM224.49 54.4163V55.4163H225.49H231.978V61.9043V62.9043H232.978H238.834H239.834V61.9043V55.4163H246.322H247.322V54.4163V49.0403V48.0403H246.322H239.834V41.5523V40.5523H238.834H232.978H231.978V41.5523V48.0403H225.49H224.49V49.0403V54.4163Z" stroke="url(#paint0_linear_234_2)" stroke-width="2"/>
<defs>
<linearGradient id="paint0_linear_234_2" x1="211.349" y1="36.6403" x2="12.1923" y2="19.5149" gradientUnits="userSpaceOnUse">
<stop stop-color="#D996FB"/>
<stop offset="1" stop-color="#8CB8FA"/>
</linearGradient>
</defs>
</svg>
