<svg width="113" height="36" viewBox="0 0 113 36" fill="none" xmlns="http://www.w3.org/2000/svg">
<path d="M5.57595 31.0004V32.0004H6.57595H12.0359H13.0359V31.0004V2.98644V1.98644H12.0359H2.54395H1.54395V2.98644V7.69045V8.69045H2.54395H5.57595V31.0004ZM37.3474 2.98644V1.98644H36.3474H23.4114H22.6119L22.4359 2.76627L19.1179 17.4663L18.6046 19.7403L20.6061 18.545C22.493 17.4181 24.3339 16.8804 26.1414 16.8804C27.7803 16.8804 28.9804 17.3047 29.8468 18.0575C30.704 18.8293 31.1474 19.8353 31.1474 21.1724C31.1474 22.645 30.7247 23.7409 29.9516 24.5586C29.107 25.4471 27.9586 25.9264 26.3934 25.9264C25.1367 25.9264 23.9424 25.6204 22.7969 24.9978L22.7906 24.9944L22.7842 24.991C21.8069 24.4779 20.9533 23.7407 20.2238 22.7597L19.1393 21.3012L18.4878 22.998L16.6818 27.702L16.4421 28.3264L16.9276 28.7864C18.0582 29.8574 19.2745 30.716 20.5775 31.3525C22.3516 32.2237 24.5305 32.6304 27.0654 32.6304C30.4949 32.6304 33.331 31.6091 35.4585 29.4816C37.5701 27.37 38.6074 24.6699 38.6074 21.4664C38.6074 18.4583 37.7131 15.9491 35.8448 14.0477C33.8087 11.9503 31.1275 10.9324 27.9054 10.9324C27.7135 10.9324 27.5129 10.9389 27.3038 10.9515L27.8206 8.69045H36.3474H37.3474V7.69045V2.98644ZM43.8581 28.3942L43.858 28.3942L43.8655 28.4033C46.1588 31.1793 48.9914 32.6304 52.3225 32.6304C55.6544 32.6304 58.4752 31.1784 60.7416 28.3983C63.0597 25.5611 64.1585 21.7264 64.1585 17.0144C64.1585 12.279 63.0617 8.44184 60.7411 5.63006C58.477 2.8248 55.6569 1.35645 52.3225 1.35645C48.9871 1.35645 46.1538 2.82541 43.8621 5.62966L43.8614 5.63058C41.5699 8.44153 40.4865 12.2635 40.4865 16.9724C40.4865 21.7084 41.5694 25.5562 43.8581 28.3942ZM55.1843 10.0899L55.1897 10.0981L55.1953 10.1062C56.1451 11.4835 56.6985 13.718 56.6985 16.9724C56.6985 20.228 56.159 22.4859 55.2263 23.897C54.2361 25.395 53.2595 25.9264 52.3225 25.9264C51.3855 25.9264 50.4089 25.395 49.4187 23.897C48.4859 22.4859 47.9465 20.228 47.9465 16.9724C47.9465 13.7162 48.4863 11.4779 49.4131 10.0983C50.4371 8.58839 51.4162 8.06044 52.3225 8.06044C53.225 8.06044 54.189 8.58422 55.1843 10.0899ZM67.7291 28.3942L67.7366 28.4033C70.0298 31.1793 72.8625 32.6304 76.1936 32.6304C79.5255 32.6304 82.3463 31.1784 84.6127 28.3983C86.9308 25.5611 88.0296 21.7264 88.0296 17.0144C88.0296 12.2791 86.9329 8.44203 84.6124 5.63027C82.3483 2.82488 79.5281 1.35645 76.1936 1.35645C72.8582 1.35645 70.0249 2.82541 67.7332 5.62966L67.7325 5.63058C65.441 8.44153 64.3576 12.2635 64.3576 16.9724C64.3576 21.7084 65.4405 25.5562 67.7292 28.3942L67.7291 28.3942ZM79.0554 10.0899L79.0608 10.0981L79.0664 10.1062C80.0162 11.4835 80.5696 13.718 80.5696 16.9724C80.5696 20.228 80.0301 22.4859 79.0974 23.897C78.1072 25.395 77.1306 25.9264 76.1936 25.9264C75.2565 25.9264 74.28 25.395 73.2898 23.897C72.357 22.4859 71.8176 20.228 71.8176 16.9724C71.8176 13.7157 72.3575 11.4773 73.2846 10.0977C74.3084 8.58826 75.2874 8.06044 76.1936 8.06044C77.0961 8.06044 78.0601 8.58422 79.0554 10.0899ZM103.891 11.6404H102.891V12.6404V14.2927C102.018 14.6128 101.253 15.1266 100.61 15.8294L100.604 15.8361L100.598 15.8428C99.7088 16.8501 99.2674 18.0645 99.2674 19.4324C99.2674 20.8119 99.7349 22.006 100.708 22.9191C101.526 23.6976 102.718 24.3684 104.203 24.9635C104.663 25.1634 105.014 25.3305 105.263 25.4657C105.458 25.5711 105.547 25.6342 105.576 25.6544C105.586 25.6621 105.589 25.6636 105.584 25.6589C105.803 25.8983 105.867 26.1023 105.867 26.2964C105.867 26.6331 105.766 26.869 105.567 27.0704C105.372 27.2543 105.044 27.4084 104.443 27.4084C103.781 27.4084 103.268 27.2374 102.853 26.9314L102.834 26.9174L102.814 26.9044C102.472 26.6765 102.103 26.3036 101.72 25.737L101.033 24.7183L100.175 25.5987L98.3751 27.4467L97.8046 28.0323L98.2652 28.7078C98.8146 29.5136 99.4884 30.1888 100.284 30.7255L100.289 30.7285C101.089 31.2617 101.958 31.6334 102.891 31.8442V33.6404V34.6404H103.891H105.859H106.859V33.6404V31.7261C107.77 31.4307 108.572 30.948 109.249 30.2735C110.418 29.1399 110.987 27.6814 110.987 25.9844C110.987 24.5189 110.484 23.2544 109.449 22.2802L109.441 22.2726L109.432 22.2652C109.253 22.1037 109.065 21.9512 108.869 21.8077C108.636 21.6202 108.376 21.462 108.097 21.3286C107.89 21.2109 107.699 21.11 107.529 21.0326C107.342 20.9318 107.095 20.8195 106.809 20.6986C106.549 20.5832 106.357 20.4995 106.252 20.4564C105.73 20.2225 105.317 20.0295 105.011 19.876C104.681 19.7113 104.527 19.6183 104.483 19.586L104.481 19.5851C104.279 19.437 104.267 19.3422 104.267 19.2644C104.267 19.0692 104.323 18.9514 104.431 18.8436L104.438 18.836L104.445 18.8284C104.565 18.7031 104.808 18.5604 105.355 18.5604C105.986 18.5604 106.556 18.82 107.1 19.4881L107.89 20.457L108.662 19.4743L110.246 17.4583L110.765 16.7968L110.203 16.1715C109.683 15.5936 109.043 15.1097 108.3 14.7113L108.288 14.7045L108.275 14.698C107.815 14.4682 107.343 14.2958 106.859 14.1834V12.6404V11.6404H105.859H103.891Z" stroke="white" stroke-width="2"/>
<path d="M5.57595 31.0004V32.0004H6.57595H12.0359H13.0359V31.0004V2.98644V1.98644H12.0359H2.54395H1.54395V2.98644V7.69045V8.69045H2.54395H5.57595V31.0004ZM37.3474 2.98644V1.98644H36.3474H23.4114H22.6119L22.4359 2.76627L19.1179 17.4663L18.6046 19.7403L20.6061 18.545C22.493 17.4181 24.3339 16.8804 26.1414 16.8804C27.7803 16.8804 28.9804 17.3047 29.8468 18.0575C30.704 18.8293 31.1474 19.8353 31.1474 21.1724C31.1474 22.645 30.7247 23.7409 29.9516 24.5586C29.107 25.4471 27.9586 25.9264 26.3934 25.9264C25.1367 25.9264 23.9424 25.6204 22.7969 24.9978L22.7906 24.9944L22.7842 24.991C21.8069 24.4779 20.9533 23.7407 20.2238 22.7597L19.1393 21.3012L18.4878 22.998L16.6818 27.702L16.4421 28.3264L16.9276 28.7864C18.0582 29.8574 19.2745 30.716 20.5775 31.3525C22.3516 32.2237 24.5305 32.6304 27.0654 32.6304C30.4949 32.6304 33.331 31.6091 35.4585 29.4816C37.5701 27.37 38.6074 24.6699 38.6074 21.4664C38.6074 18.4583 37.7131 15.9491 35.8448 14.0477C33.8087 11.9503 31.1275 10.9324 27.9054 10.9324C27.7135 10.9324 27.5129 10.9389 27.3038 10.9515L27.8206 8.69045H36.3474H37.3474V7.69045V2.98644ZM43.8581 28.3942L43.858 28.3942L43.8655 28.4033C46.1588 31.1793 48.9914 32.6304 52.3225 32.6304C55.6544 32.6304 58.4752 31.1784 60.7416 28.3983C63.0597 25.5611 64.1585 21.7264 64.1585 17.0144C64.1585 12.279 63.0617 8.44184 60.7411 5.63006C58.477 2.8248 55.6569 1.35645 52.3225 1.35645C48.9871 1.35645 46.1538 2.82541 43.8621 5.62966L43.8614 5.63058C41.5699 8.44153 40.4865 12.2635 40.4865 16.9724C40.4865 21.7084 41.5694 25.5562 43.8581 28.3942ZM55.1843 10.0899L55.1897 10.0981L55.1953 10.1062C56.1451 11.4835 56.6985 13.718 56.6985 16.9724C56.6985 20.228 56.159 22.4859 55.2263 23.897C54.2361 25.395 53.2595 25.9264 52.3225 25.9264C51.3855 25.9264 50.4089 25.395 49.4187 23.897C48.4859 22.4859 47.9465 20.228 47.9465 16.9724C47.9465 13.7162 48.4863 11.4779 49.4131 10.0983C50.4371 8.58839 51.4162 8.06044 52.3225 8.06044C53.225 8.06044 54.189 8.58422 55.1843 10.0899ZM67.7291 28.3942L67.7366 28.4033C70.0298 31.1793 72.8625 32.6304 76.1936 32.6304C79.5255 32.6304 82.3463 31.1784 84.6127 28.3983C86.9308 25.5611 88.0296 21.7264 88.0296 17.0144C88.0296 12.2791 86.9329 8.44203 84.6124 5.63027C82.3483 2.82488 79.5281 1.35645 76.1936 1.35645C72.8582 1.35645 70.0249 2.82541 67.7332 5.62966L67.7325 5.63058C65.441 8.44153 64.3576 12.2635 64.3576 16.9724C64.3576 21.7084 65.4405 25.5562 67.7292 28.3942L67.7291 28.3942ZM79.0554 10.0899L79.0608 10.0981L79.0664 10.1062C80.0162 11.4835 80.5696 13.718 80.5696 16.9724C80.5696 20.228 80.0301 22.4859 79.0974 23.897C78.1072 25.395 77.1306 25.9264 76.1936 25.9264C75.2565 25.9264 74.28 25.395 73.2898 23.897C72.357 22.4859 71.8176 20.228 71.8176 16.9724C71.8176 13.7157 72.3575 11.4773 73.2846 10.0977C74.3084 8.58826 75.2874 8.06044 76.1936 8.06044C77.0961 8.06044 78.0601 8.58422 79.0554 10.0899ZM103.891 11.6404H102.891V12.6404V14.2927C102.018 14.6128 101.253 15.1266 100.61 15.8294L100.604 15.8361L100.598 15.8428C99.7088 16.8501 99.2674 18.0645 99.2674 19.4324C99.2674 20.8119 99.7349 22.006 100.708 22.9191C101.526 23.6976 102.718 24.3684 104.203 24.9635C104.663 25.1634 105.014 25.3305 105.263 25.4657C105.458 25.5711 105.547 25.6342 105.576 25.6544C105.586 25.6621 105.589 25.6636 105.584 25.6589C105.803 25.8983 105.867 26.1023 105.867 26.2964C105.867 26.6331 105.766 26.869 105.567 27.0704C105.372 27.2543 105.044 27.4084 104.443 27.4084C103.781 27.4084 103.268 27.2374 102.853 26.9314L102.834 26.9174L102.814 26.9044C102.472 26.6765 102.103 26.3036 101.72 25.737L101.033 24.7183L100.175 25.5987L98.3751 27.4467L97.8046 28.0323L98.2652 28.7078C98.8146 29.5136 99.4884 30.1888 100.284 30.7255L100.289 30.7285C101.089 31.2617 101.958 31.6334 102.891 31.8442V33.6404V34.6404H103.891H105.859H106.859V33.6404V31.7261C107.77 31.4307 108.572 30.948 109.249 30.2735C110.418 29.1399 110.987 27.6814 110.987 25.9844C110.987 24.5189 110.484 23.2544 109.449 22.2802L109.441 22.2726L109.432 22.2652C109.253 22.1037 109.065 21.9512 108.869 21.8077C108.636 21.6202 108.376 21.462 108.097 21.3286C107.89 21.2109 107.699 21.11 107.529 21.0326C107.342 20.9318 107.095 20.8195 106.809 20.6986C106.549 20.5832 106.357 20.4995 106.252 20.4564C105.73 20.2225 105.317 20.0295 105.011 19.876C104.681 19.7113 104.527 19.6183 104.483 19.586L104.481 19.5851C104.279 19.437 104.267 19.3422 104.267 19.2644C104.267 19.0692 104.323 18.9514 104.431 18.8436L104.438 18.836L104.445 18.8284C104.565 18.7031 104.808 18.5604 105.355 18.5604C105.986 18.5604 106.556 18.82 107.1 19.4881L107.89 20.457L108.662 19.4743L110.246 17.4583L110.765 16.7968L110.203 16.1715C109.683 15.5936 109.043 15.1097 108.3 14.7113L108.288 14.7045L108.275 14.698C107.815 14.4682 107.343 14.2958 106.859 14.1834V12.6404V11.6404H105.859H103.891Z" stroke="url(#paint0_linear_253_13)" stroke-width="2"/>
<defs>
<linearGradient id="paint0_linear_253_13" x1="94.5649" y1="18.3052" x2="6.67093" y2="11.1766" gradientUnits="userSpaceOnUse">
<stop stop-color="#D996FB"/>
<stop offset="1" stop-color="#8CB8FA"/>
</linearGradient>
</defs>
</svg>
