<svg width="113" height="34" viewBox="0 0 113 34" fill="none" xmlns="http://www.w3.org/2000/svg">
<path d="M5.57595 31.0004V32.0004H6.57595H12.0359H13.0359V31.0004V2.98644V1.98644H12.0359H2.54395H1.54395V2.98644V7.69045V8.69045H2.54395H5.57595V31.0004ZM21.3815 28.3942L21.3814 28.3942L21.389 28.4033C23.6822 31.1793 26.5149 32.6304 29.8459 32.6304C33.1779 32.6304 35.9986 31.1784 38.265 28.3983C40.5831 25.5611 41.6819 21.7264 41.6819 17.0144C41.6819 12.279 40.5852 8.44184 38.2646 5.63006C36.0005 2.8248 33.1803 1.35645 29.8459 1.35645C26.5106 1.35645 23.6772 2.82541 21.3856 5.62966L21.3848 5.63058C19.0933 8.44153 18.0099 12.2635 18.0099 16.9724C18.0099 21.7084 19.0928 25.5562 21.3815 28.3942ZM32.7077 10.0899L32.7131 10.0981L32.7187 10.1062C33.6686 11.4835 34.2219 13.718 34.2219 16.9724C34.2219 20.228 33.6824 22.4859 32.7497 23.897C31.7595 25.395 30.7829 25.9264 29.8459 25.9264C28.9089 25.9264 27.9323 25.395 26.9421 23.897C26.0094 22.4859 25.4699 20.228 25.4699 16.9724C25.4699 13.716 26.0098 11.4776 26.9367 10.098C27.9607 8.58832 28.9397 8.06044 29.8459 8.06044C30.7485 8.06044 31.7124 8.58422 32.7077 10.0899ZM45.2526 28.3942L45.2525 28.3942L45.26 28.4033C47.5533 31.1793 50.3859 32.6304 53.717 32.6304C57.0489 32.6304 59.8697 31.1784 62.1361 28.3983C64.4542 25.5611 65.553 21.7264 65.553 17.0144C65.553 12.279 64.4562 8.44184 62.1357 5.63006C59.8716 2.8248 57.0514 1.35645 53.717 1.35645C50.3817 1.35645 47.5483 2.82541 45.2567 5.62966L45.2559 5.63058C42.9644 8.44153 41.881 12.2635 41.881 16.9724C41.881 21.7084 42.9639 25.5562 45.2526 28.3942ZM56.5788 10.0899L56.5842 10.0981L56.5898 10.1062C57.5397 11.4835 58.093 13.718 58.093 16.9724C58.093 20.228 57.5535 22.4859 56.6208 23.897C55.6306 25.395 54.654 25.9264 53.717 25.9264C52.78 25.9264 51.8034 25.395 50.8132 23.897C49.8805 22.4859 49.341 20.228 49.341 16.9724C49.341 13.7162 49.8808 11.4779 50.8076 10.0983C51.8316 8.58839 52.8107 8.06044 53.717 8.06044C54.6196 8.06044 55.5835 8.58422 56.5788 10.0899ZM69.1236 28.3942L69.1311 28.4033C71.4244 31.1793 74.257 32.6304 77.5881 32.6304C80.92 32.6304 83.7408 31.1784 86.0072 28.3983C88.3253 25.5611 89.4241 21.7264 89.4241 17.0144C89.4241 12.2791 88.3274 8.44203 86.0069 5.63027C83.7428 2.82488 80.9226 1.35645 77.5881 1.35645C74.2528 1.35645 71.4194 2.82541 69.1278 5.62966L69.127 5.63058C66.8355 8.44153 65.7521 12.2635 65.7521 16.9724C65.7521 21.7084 66.835 25.5562 69.1237 28.3942L69.1236 28.3942ZM80.4499 10.0899L80.4553 10.0981L80.4609 10.1062C81.4108 11.4835 81.9641 13.718 81.9641 16.9724C81.9641 20.228 81.4246 22.4859 80.4919 23.897C79.5017 25.395 78.5251 25.9264 77.5881 25.9264C76.6511 25.9264 75.6745 25.395 74.6843 23.897C73.7516 22.4859 73.2121 20.228 73.2121 16.9724C73.2121 13.7157 73.752 11.4773 74.6791 10.0977C75.703 8.58826 76.682 8.06044 77.5881 8.06044C78.4907 8.06044 79.4546 8.58422 80.4499 10.0899ZM99.1259 24.2084V25.2084H100.126H102.87V27.9524V28.9524H103.87H106.798H107.798V27.9524V25.2084H110.542H111.542V24.2084V21.5204V20.5204H110.542H107.798V17.7764V16.7764H106.798H103.87H102.87V17.7764V20.5204H100.126H99.1259V21.5204V24.2084Z" stroke="white" stroke-width="2"/>
<path d="M5.57595 31.0004V32.0004H6.57595H12.0359H13.0359V31.0004V2.98644V1.98644H12.0359H2.54395H1.54395V2.98644V7.69045V8.69045H2.54395H5.57595V31.0004ZM21.3815 28.3942L21.3814 28.3942L21.389 28.4033C23.6822 31.1793 26.5149 32.6304 29.8459 32.6304C33.1779 32.6304 35.9986 31.1784 38.265 28.3983C40.5831 25.5611 41.6819 21.7264 41.6819 17.0144C41.6819 12.279 40.5852 8.44184 38.2646 5.63006C36.0005 2.8248 33.1803 1.35645 29.8459 1.35645C26.5106 1.35645 23.6772 2.82541 21.3856 5.62966L21.3848 5.63058C19.0933 8.44153 18.0099 12.2635 18.0099 16.9724C18.0099 21.7084 19.0928 25.5562 21.3815 28.3942ZM32.7077 10.0899L32.7131 10.0981L32.7187 10.1062C33.6686 11.4835 34.2219 13.718 34.2219 16.9724C34.2219 20.228 33.6824 22.4859 32.7497 23.897C31.7595 25.395 30.7829 25.9264 29.8459 25.9264C28.9089 25.9264 27.9323 25.395 26.9421 23.897C26.0094 22.4859 25.4699 20.228 25.4699 16.9724C25.4699 13.716 26.0098 11.4776 26.9367 10.098C27.9607 8.58832 28.9397 8.06044 29.8459 8.06044C30.7485 8.06044 31.7124 8.58422 32.7077 10.0899ZM45.2526 28.3942L45.2525 28.3942L45.26 28.4033C47.5533 31.1793 50.3859 32.6304 53.717 32.6304C57.0489 32.6304 59.8697 31.1784 62.1361 28.3983C64.4542 25.5611 65.553 21.7264 65.553 17.0144C65.553 12.279 64.4562 8.44184 62.1357 5.63006C59.8716 2.8248 57.0514 1.35645 53.717 1.35645C50.3817 1.35645 47.5483 2.82541 45.2567 5.62966L45.2559 5.63058C42.9644 8.44153 41.881 12.2635 41.881 16.9724C41.881 21.7084 42.9639 25.5562 45.2526 28.3942ZM56.5788 10.0899L56.5842 10.0981L56.5898 10.1062C57.5397 11.4835 58.093 13.718 58.093 16.9724C58.093 20.228 57.5535 22.4859 56.6208 23.897C55.6306 25.395 54.654 25.9264 53.717 25.9264C52.78 25.9264 51.8034 25.395 50.8132 23.897C49.8805 22.4859 49.341 20.228 49.341 16.9724C49.341 13.7162 49.8808 11.4779 50.8076 10.0983C51.8316 8.58839 52.8107 8.06044 53.717 8.06044C54.6196 8.06044 55.5835 8.58422 56.5788 10.0899ZM69.1236 28.3942L69.1311 28.4033C71.4244 31.1793 74.257 32.6304 77.5881 32.6304C80.92 32.6304 83.7408 31.1784 86.0072 28.3983C88.3253 25.5611 89.4241 21.7264 89.4241 17.0144C89.4241 12.2791 88.3274 8.44203 86.0069 5.63027C83.7428 2.82488 80.9226 1.35645 77.5881 1.35645C74.2528 1.35645 71.4194 2.82541 69.1278 5.62966L69.127 5.63058C66.8355 8.44153 65.7521 12.2635 65.7521 16.9724C65.7521 21.7084 66.835 25.5562 69.1237 28.3942L69.1236 28.3942ZM80.4499 10.0899L80.4553 10.0981L80.4609 10.1062C81.4108 11.4835 81.9641 13.718 81.9641 16.9724C81.9641 20.228 81.4246 22.4859 80.4919 23.897C79.5017 25.395 78.5251 25.9264 77.5881 25.9264C76.6511 25.9264 75.6745 25.395 74.6843 23.897C73.7516 22.4859 73.2121 20.228 73.2121 16.9724C73.2121 13.7157 73.752 11.4773 74.6791 10.0977C75.703 8.58826 76.682 8.06044 77.5881 8.06044C78.4907 8.06044 79.4546 8.58422 80.4499 10.0899ZM99.1259 24.2084V25.2084H100.126H102.87V27.9524V28.9524H103.87H106.798H107.798V27.9524V25.2084H110.542H111.542V24.2084V21.5204V20.5204H110.542H107.798V17.7764V16.7764H106.798H103.87H102.87V17.7764V20.5204H100.126H99.1259V21.5204V24.2084Z" stroke="url(#paint0_linear_253_12)" stroke-width="2"/>
<defs>
<linearGradient id="paint0_linear_253_12" x1="95.0398" y1="17.2804" x2="6.78097" y2="9.59134" gradientUnits="userSpaceOnUse">
<stop stop-color="#D996FB"/>
<stop offset="1" stop-color="#8CB8FA"/>
</linearGradient>
</defs>
</svg>
