<svg width="106" height="70" viewBox="0 0 106 70" fill="none" xmlns="http://www.w3.org/2000/svg">
<path d="M10.888 66.9998V67.9998H11.888H24.368H25.368V66.9998V2.96777V1.96777H24.368H2.672H1.672V2.96777V13.7198V14.7198H2.672H10.888V66.9998ZM47.8255 66.9998V67.9998H48.8255H61.3055H62.3055V66.9998V2.96777V1.96777H61.3055H39.6095H38.6095V2.96777V13.7198V14.7198H39.6095H47.8255V66.9998ZM82.084 53.4158V54.4158H83.084H89.572V60.9038V61.9038H90.572H96.428H97.428V60.9038V54.4158H103.916H104.916V53.4158V48.0398V47.0398H103.916H97.428V40.5518V39.5518H96.428H90.572H89.572V40.5518V47.0398H83.084H82.084V48.0398V53.4158Z" stroke="url(#paint0_linear_130:8)" stroke-width="2"/>
<defs>
<linearGradient id="paint0_linear_130:8" x1="89.3834" y1="35.6115" x2="6.13213" y2="32.5031" gradientUnits="userSpaceOnUse">
<stop stop-color="#D996FB"/>
<stop offset="1" stop-color="#8CB8FA"/>
</linearGradient>
</defs>
</svg>
