<svg width="97" height="33" viewBox="0 0 97 33" fill="none" xmlns="http://www.w3.org/2000/svg">
<g clip-path="url(#clip0_203_90)">
<path d="M22.5141 9.72447C23.5026 10.8722 24.7472 11.662 25.9797 12.5012C27.1634 13.3034 28.2861 13.7477 29.5674 14.34C30.0677 14.5622 31.0561 14.9694 31.593 14.6856C32.0811 14.4264 31.593 14.0685 31.349 13.9575C28.7132 12.8097 26.3458 11.0573 25.6625 8.07077C25.0889 5.57788 27.2976 2.83816 29.9212 3.7514C30.751 4.03524 31.6784 6.38004 32.0811 6.306C33.277 6.05918 32.9841 4.26972 32.5326 3.57862C31.8493 2.54197 30.8242 1.96194 29.665 1.61639C29.0182 1.41894 28.3227 1.20914 27.6393 1.30787C27.2732 1.36957 26.7607 1.71512 26.3946 1.57937C25.4428 1.20914 26.6265 -0.740748 24.7839 0.320583C23.832 0.86359 22.3433 0.86359 22.0504 2.18408C21.9528 2.62836 22.6118 4.41782 21.6721 4.0229C20.5861 3.57862 19.9882 4.41782 20.0248 5.52851C19.8661 7.04646 21.6233 8.68782 22.5141 9.72447Z" fill="#8CB8FA"/>
<path d="M31.5076 28.1989C30.9585 29.2109 29.9091 29.8033 28.762 29.7416C25.5649 30.1488 25.3818 25.6937 26.236 23.7315C26.8828 22.2506 27.9322 20.9424 29.2989 20.0785C29.8847 19.7083 30.9829 19.4245 31.41 18.8691C31.7395 18.4372 31.1416 18.178 30.8243 18.3261C27.8956 19.6466 25.4062 20.9424 22.8559 22.9417C21.8308 23.7438 21.0132 24.7805 20.3909 25.9159C19.9882 26.6563 19.793 29.3467 21.1963 29.3343C21.7332 29.3343 21.965 28.4951 22.2945 28.1866C22.9901 27.5325 22.2701 29.322 22.2335 29.4084C21.8552 30.3093 22.1237 31.3953 22.8559 32.0494C23.405 32.543 25.394 33.4562 25.931 32.7651C26.1628 32.4566 26.175 31.5434 26.7119 31.6051C27.3831 31.6791 28.0787 31.7408 28.7498 31.7285C30.6778 31.7038 34.3265 29.2233 32.9476 26.8538C32.1422 25.4716 31.8005 27.6683 31.5076 28.1989Z" fill="#8CB8FA"/>
<path d="M61.0262 4.45512C61.8438 3.54188 62.9664 3.22101 64.1501 3.5172C66.9323 4.22064 67.0787 7.61443 65.9195 9.74943C65.2849 10.9218 64.4429 12.0819 63.3569 12.8717C63.0396 13.1062 60.7089 14.0318 60.9041 14.5378C61.319 15.5991 66.9445 11.9461 67.6035 11.4525C69.4217 10.1197 72.387 7.81189 72.0087 5.20792C71.9233 4.66492 71.5938 3.68997 70.8494 3.82572C70.5931 3.87509 70.1172 4.40575 69.8366 4.19596C69.5559 3.97382 70.1416 2.66566 69.922 2.18436C69.7268 1.75243 69.4461 1.35751 69.0678 1.06133C68.5553 0.666413 66.3466 -0.64174 66.2246 0.678754C66.0659 2.29543 64.9311 1.24644 63.723 1.33283C61.4899 0.999621 59.4154 3.43081 59.513 5.55347C59.5984 7.41697 60.7577 4.76365 61.0262 4.45512Z" fill="#8CB8FA"/>
<path d="M65.5168 20.3747C64.2966 19.4368 62.6858 18.7457 61.197 18.3755C60.3062 18.1533 60.5015 19.0049 61.1116 19.2394C61.6729 19.4492 62.1855 19.6466 62.698 19.9675C64.7358 21.2386 66.7737 23.5464 66.5785 26.1257C66.5785 28.9394 63.5888 31.1978 61.1238 29.1739C60.7699 28.8777 60.3184 27.0142 59.8425 27.3598C58.9151 28.0385 59.8059 29.9267 60.3306 30.5684C61.2825 31.7285 62.8078 32.1604 64.2599 31.963C65.0775 31.8519 66.31 30.8153 66.2124 32.1851C66.1026 33.8018 68.7872 32.2839 69.2875 31.8889C70.3613 31.0251 69.8854 29.8527 69.556 28.7173C69.2997 27.8287 71.0325 29.4948 71.4718 29.2233C72.6555 28.4705 72.0331 26.4712 71.4352 25.558C69.9831 23.2996 67.5791 21.9544 65.5168 20.3747Z" fill="#8CB8FA"/>
<path d="M9.6158 14.3524C11.1167 15.2903 13.9356 14.1796 13.3743 12.1063C13.2278 11.5756 11.8001 10.6007 12.0319 10.1811C12.4102 9.50235 13.6061 9.28021 14.2895 9.19382C16.2419 8.97168 18.0479 10.1441 19.6587 11.1067C20.6105 11.6744 21.5379 12.2544 22.5264 12.748C22.7704 12.8715 24.3202 13.3157 23.5392 12.4272C22.2945 11.0203 20.4397 9.86024 18.9265 8.76188C17.5842 7.78694 16.1809 6.68858 13.8258 6.70093C8.96905 6.50347 5.21059 11.5633 9.6158 14.3524Z" fill="#8CB8FA"/>
<path d="M22.7948 20.3871C21.8064 20.819 20.94 21.4484 20.0492 22.0285C18.3896 23.1145 16.5592 24.003 14.5458 24.0277C14.1431 24.0401 11.6049 23.892 12.0564 22.954C12.3492 22.337 13.1058 22.2506 13.3133 21.4731C13.6916 20.0786 12.6055 18.684 11.1656 18.8321C9.32296 18.684 7.52915 20.5105 7.72439 22.3493C7.94404 24.472 9.99411 25.7431 11.8123 26.2861C16.3152 27.6313 19.3537 23.7686 22.6972 21.4484C23.283 21.0659 24.3202 19.7207 22.7948 20.3871Z" fill="#8CB8FA"/>
<path d="M68.8481 13.1309C69.5803 13.4024 70.8372 12.1806 71.3619 11.8104C73.1191 10.5639 75.218 9.23111 77.4633 9.34218C78.3785 9.39154 79.2571 9.20643 79.9893 9.97157C80.4408 10.4405 79.5134 10.8848 79.2815 11.2057C78.0856 12.81 79.5134 14.6488 81.3072 14.4884C82.9789 14.3403 84.2968 12.7977 84.309 11.1193C84.3335 6.86162 78.0124 6.12116 75.2058 7.63911C73.1679 8.73747 71.4351 10.1567 69.6291 11.5759C69.3484 11.798 67.8109 12.7483 68.8481 13.1309Z" fill="#8CB8FA"/>
<path d="M82.3201 18.9926C80.9046 18.3509 78.1467 18.9803 78.7569 21.0906C78.9521 21.7694 80.1724 22.3494 80.1968 22.9048C80.2456 23.7686 78.3054 24.0031 77.7807 24.0031C75.6086 24.0278 73.6927 22.9788 71.8989 21.8434C71.0325 21.2881 70.0807 20.8068 69.2631 20.1774C68.9946 19.9676 68.2869 20.0787 68.5554 20.5723C68.7506 20.8438 68.9947 21.0659 69.2753 21.2511C70.8861 22.5592 72.4236 23.9784 74.2296 25.0274C75.9869 26.0394 77.622 26.2122 79.5623 26.2985C83.3085 26.7305 86.2616 20.7821 82.3201 18.9926Z" fill="#8CB8FA"/>
<path d="M96.6094 15.9446H61.7216C61.4166 15.7471 61.1359 15.5373 60.9529 15.4139C60.4525 15.0437 59.8424 14.6858 59.2323 14.5624C58.4269 14.4019 57.109 14.6611 56.389 15.2288C56.5354 14.8709 56.1083 14.1551 55.8887 13.9947C55.3518 13.5874 54.7416 13.5751 54.1315 13.7972C53.5458 14.0194 53.1431 14.5007 52.7404 14.9696C52.3621 15.4016 51.9838 15.8212 51.6299 16.2778C51.7031 16.0556 51.9106 15.8459 52.0204 15.6361C52.1912 15.2782 52.2645 14.8709 52.3133 14.4637C52.4719 13.3159 51.7641 12.2423 50.7147 11.8103C49.5798 11.3414 48.323 11.7733 47.8471 12.9827C47.6152 13.5874 48.9819 13.6862 49.2138 14.5377C49.3968 15.2288 48.445 15.4139 47.9813 15.2782C47.8226 15.0684 47.6274 14.8956 47.4078 14.7969C47.1515 14.6858 46.9196 14.6858 46.7 14.7352C46.4681 14.6858 46.2363 14.6858 45.9922 14.7969C45.7726 14.8956 45.5773 15.0684 45.4187 15.2782C44.955 15.4139 44.0032 15.2288 44.1862 14.5377C44.4059 13.6862 45.7848 13.5998 45.5529 12.9827C45.0892 11.7733 43.8201 11.3414 42.6853 11.8103C41.6358 12.2546 40.9281 13.3159 41.0867 14.4637C41.1355 14.8586 41.2087 15.2782 41.3796 15.6361C41.4772 15.8459 41.6968 16.0556 41.7579 16.2778C41.404 15.8212 41.0257 15.4016 40.6474 14.9696C40.2447 14.5007 39.842 14.0194 39.2563 13.7972C38.6461 13.5628 38.036 13.5874 37.4991 13.9947C37.2794 14.1675 36.8523 14.8709 36.9988 15.2288C36.2788 14.6611 34.9609 14.4019 34.1555 14.5624C33.5454 14.6858 32.9352 15.0437 32.4349 15.4139C32.2641 15.5373 31.9712 15.7471 31.6661 15.9446H0.36598C0.195141 15.9446 0.0609101 16.0803 0.0487073 16.2531C0.0487073 16.4012 0.0243017 16.5493 -0.000103841 16.685C-0.0367122 16.8825 0.109721 17.0553 0.304966 17.0553H31.6661C31.9712 17.2527 32.2519 17.4625 32.4349 17.5859C32.9352 17.9438 33.5454 18.3141 34.1555 18.4375C34.9731 18.5856 36.291 18.3387 36.9988 17.7711C36.8523 18.1289 37.2794 18.8447 37.4991 19.0052C38.036 19.4124 38.6584 19.4248 39.2563 19.1903C39.842 18.9681 40.2447 18.4868 40.6474 18.0179C41.0257 17.5859 41.3918 17.1663 41.7579 16.7097C41.6846 16.9319 41.465 17.1417 41.3796 17.3515C41.2087 17.7094 41.1355 18.129 41.0867 18.5239C40.9281 19.6839 41.6236 20.7453 42.6853 21.1772C43.8201 21.6462 45.0892 21.2142 45.5529 20.0048C45.7848 19.4001 44.4059 19.3014 44.1862 18.4498C44.0032 17.7587 44.955 17.5736 45.4187 17.7094C45.5773 17.9192 45.7726 18.0919 45.9922 18.1907C46.2363 18.3017 46.4681 18.3017 46.7 18.2647C46.9196 18.3141 47.1515 18.3141 47.4078 18.1907C47.6152 18.1043 47.8226 17.9192 47.9813 17.7094C48.445 17.5736 49.3968 17.7587 49.2138 18.4498C48.9819 19.3014 47.6152 19.4001 47.8471 20.0048C48.3108 21.2142 49.5798 21.6462 50.7147 21.1772C51.7641 20.7453 52.4719 19.6716 52.3133 18.5239C52.2645 18.129 52.1912 17.7094 52.0204 17.3515C51.9228 17.1417 51.7031 16.9319 51.6299 16.7097C51.9838 17.1663 52.3621 17.5736 52.7404 18.0179C53.1431 18.4868 53.5458 18.9681 54.1315 19.1903C54.7416 19.4248 55.3518 19.4124 55.8887 19.0052C56.1083 18.8324 56.5354 18.1166 56.389 17.7711C57.0968 18.3387 58.4269 18.5856 59.2323 18.4375C59.8424 18.3141 60.4525 17.9562 60.9529 17.5859C61.1237 17.4625 61.4166 17.2527 61.7216 17.0553H96.6826C96.8901 17.0553 97.0365 16.8702 96.9877 16.6727C96.9511 16.5246 96.9267 16.3889 96.9145 16.2408C96.9023 16.068 96.7681 15.9446 96.6094 15.9446Z" fill="#8CB8FA"/>
</g>
<defs>
<clipPath id="clip0_203_90">
<rect width="97" height="33" fill="white"/>
</clipPath>
</defs>
</svg>
