<svg width="112" height="58" viewBox="0 0 112 58" fill="none" xmlns="http://www.w3.org/2000/svg">
<path d="M17.3958 53.168H12.9701C12.6498 53.168 12.39 53.4277 12.39 53.7479V57.4198C12.39 57.74 12.6498 57.9997 12.9701 57.9997H17.3958C17.716 57.9997 17.9759 57.74 17.9759 57.4198V53.7479C17.9784 53.4277 17.7187 53.168 17.3958 53.168Z" fill="#0B0D39"/>
<path d="M99.1606 53.168H94.7347C94.4145 53.168 94.1548 53.4277 94.1548 53.7479V57.4198C94.1548 57.74 94.4145 57.9997 94.7347 57.9997H99.1606C99.4809 57.9997 99.7406 57.74 99.7406 57.4198V53.7479C99.7431 53.4277 99.4809 53.168 99.1606 53.168Z" fill="#0B0D39"/>
<path d="M104.31 31.2933H100.242V29.2607C100.242 23.8792 98.3153 16.7222 81.6713 16.7222C80.7155 16.7222 79.7094 16.8129 78.5947 16.9996C77.7524 17.1408 76.9176 16.7449 76.4965 16.0086C72.2649 8.64475 64.3691 4.06767 55.8882 4.06767C47.4073 4.06767 39.5115 8.64223 35.2798 16.0086C34.8561 16.7449 34.0138 17.1383 33.1791 16.9996C32.0645 16.8129 31.0583 16.7222 30.1025 16.7222C13.456 16.7222 11.5293 23.8792 11.5293 29.2607V31.2933H7.46161V29.2607C7.46161 18.2429 15.0775 12.6544 30.1025 12.6544C30.8691 12.6544 31.6535 12.6998 32.473 12.7932C37.5696 4.86712 46.4162 0 55.8857 0C65.3525 0 74.1991 4.86712 79.2982 12.7932C80.1203 12.6998 80.9046 12.6544 81.6713 12.6544C96.6937 12.6544 104.31 18.2404 104.31 29.2607V31.2933Z" fill="#0B0D39"/>
<path d="M103.41 55.6129H8.36992C7.34861 55.6129 6.48613 54.8564 6.35246 53.8426L4.86458 42.4868C2.00483 41.4655 0 38.7444 0 35.6072C0 31.5647 3.28845 28.2764 7.331 28.2764C9.39124 28.2764 11.333 29.1464 12.7251 30.6771C12.952 30.8334 13.1487 31.0302 13.29 31.2646L19.587 41.7579C30.3325 40.714 41.764 40.1818 53.5838 40.1818C65.4489 40.1818 78.0807 40.7064 92.1702 41.7832L98.4823 31.2621C98.6411 30.9973 98.8554 30.778 99.1051 30.6141C100.495 29.1211 102.411 28.2764 104.441 28.2764C108.484 28.2764 111.772 31.5647 111.772 35.6072C111.772 38.7444 109.77 41.4655 106.91 42.4868L105.422 53.8426C105.294 54.8564 104.431 55.6129 103.41 55.6129ZM10.1553 51.5476H101.624L103.059 40.5828C103.18 39.6623 103.909 38.9386 104.832 38.8275C106.471 38.6309 107.707 37.2464 107.707 35.6123C107.707 33.8117 106.244 32.3491 104.444 32.3491C103.468 32.3491 102.545 32.8005 101.912 33.5872C101.846 33.668 101.776 33.7436 101.7 33.8117L95.0123 44.9581C94.6138 45.6163 93.89 45.9896 93.1082 45.9392C78.6203 44.8043 65.6909 44.252 53.5838 44.252C41.426 44.252 29.6945 44.8195 18.7119 45.9341C17.9277 46.0072 17.1685 45.6315 16.7625 44.9581L10.0645 33.7965C9.99146 33.731 9.92342 33.6604 9.86027 33.5847C9.22987 32.798 8.30691 32.3466 7.331 32.3466C5.53035 32.3466 4.06518 33.8117 4.06518 35.6097C4.06518 37.2439 5.30087 38.6284 6.94005 38.8252C7.86304 38.9361 8.59179 39.6573 8.71293 40.5803L10.1553 51.5476Z" fill="#0B0D39"/>
<path d="M41.5492 42.6769C40.944 35.8477 38.3112 21.4381 32.685 15.8043L34.3293 14.1602C40.4145 20.2529 43.1859 34.8214 43.8643 42.4701L41.5492 42.6769Z" fill="#0B0D39"/>
<path d="M70.732 42.4223L68.4194 42.2003C69.1507 34.5945 71.9752 20.1318 77.9266 14.1729L79.571 15.817C74.0733 21.3196 71.385 35.626 70.732 42.4223Z" fill="#0B0D39"/>
</svg>
