<svg width="65" height="82" viewBox="0 0 65 82" fill="none" xmlns="http://www.w3.org/2000/svg">
<path d="M42.37 66.4865L42.3706 66.4857C42.6125 66.1868 43.0477 66.1421 43.3455 66.3851C47.1024 69.4574 49.783 72.9796 51.5397 75.7434C53.2324 78.4062 54.0558 80.3576 54.1274 80.5272C54.1274 80.5273 54.1274 80.5273 54.1275 80.5274L54.1274 80.5274C54.2165 80.7427 54.1917 80.9907 54.0627 81.1849L54.0609 81.1877C53.9347 81.3806 53.7201 81.4951 53.4886 81.4951H12.9713C12.729 81.4951 12.5049 81.3701 12.3827 81.1711L12.3827 81.1711L12.3801 81.1669C12.2513 80.9615 12.2382 80.703 12.3431 80.4894L12.3439 80.4879C15.3473 74.3205 19.0379 70.003 22.4647 67.0347L22.4654 67.0341C22.7522 66.7848 23.1917 66.816 23.4433 67.1081L23.4436 67.1084C23.5453 67.2263 23.5988 67.3768 23.6049 67.5452L23.605 67.5475C23.6134 67.7536 23.5324 67.9555 23.3702 68.0965C20.4026 70.6678 17.2236 74.292 14.489 79.3583L14.0909 80.0958H14.9289H51.5884H52.4119L52.032 79.3652C51.6332 78.5981 51.0806 77.6147 50.3741 76.4967L50.3733 76.4955C48.679 73.8305 46.0705 70.4145 42.4707 67.4717L42.4707 67.4717C42.3086 67.3392 42.2242 67.1524 42.2185 66.9503L42.2184 66.9473C42.2126 66.7797 42.2604 66.6213 42.37 66.4865Z" fill="url(#paint0_linear_31:116)" stroke="#B760E2"/>
<path d="M63.7074 32.4546L63.7021 32.4554C63.3736 32.5025 63.1172 32.7835 63.1115 33.1319C63.1115 33.132 63.1115 33.132 63.1115 33.1321L62.6116 33.1241L63.7074 32.4546ZM63.7074 32.4546C63.7426 32.4492 63.7782 32.4462 63.8187 32.4461M63.7074 32.4546L63.8187 32.4461M63.8187 32.4461C64.1981 32.4534 64.5037 32.7696 64.4953 33.1565L64.4953 33.1598C64.3633 41.9146 60.7391 49.8352 54.9606 55.5501L54.9603 55.5504C49.1866 61.2699 41.2464 64.8009 32.5 64.8009C23.669 64.8009 15.6628 61.199 9.87475 55.3799L9.87446 55.3796C4.08183 49.5653 0.5 41.5216 0.5 32.6481C0.5 23.7745 4.08183 15.7308 9.87446 9.91651L9.87475 9.91623C15.6626 4.09725 23.6688 0.5 32.5 0.5C39.6258 0.5 46.218 2.84313 51.5339 6.80084L51.5341 6.80097C56.8554 10.7592 60.9087 16.3368 62.9776 22.8133C63.0959 23.184 62.8914 23.5788 62.5301 23.6952L62.5165 23.6996L62.5042 23.7043C62.5033 23.7046 62.4983 23.7061 62.4874 23.7083C62.4706 23.7117 62.4532 23.7144 62.4209 23.7194L62.4209 23.7194C62.4201 23.7196 62.4194 23.7197 62.4186 23.7198C62.0841 23.7667 61.7617 23.5719 61.6566 23.2446L63.8187 32.4461Z" fill="url(#paint1_linear_31:116)" stroke="#B760E2"/>
<path d="M20.0889 20.1776L20.0892 20.1773C23.2588 16.9886 27.6559 15.0117 32.5 15.0117C37.3441 15.0117 41.7413 16.9886 44.9109 20.1773L44.9114 20.1778C48.0858 23.362 50.0545 27.7802 50.0545 32.6484C50.0545 37.5165 48.0859 41.9301 44.9112 45.1193L44.9109 45.1196C41.7413 48.3083 37.3441 50.2852 32.5 50.2852C27.6561 50.2852 23.2636 48.3085 20.0889 45.1193L20.0887 45.119C16.9143 41.9349 14.9456 37.5167 14.9456 32.6484C14.9456 27.7804 16.9142 23.3668 20.0889 20.1776ZM32.5 48.8907H32.5006C36.9703 48.8857 41.0067 47.074 43.935 44.1323L43.9353 44.132C46.8629 41.1861 48.6709 37.1374 48.6709 32.6484C48.6709 28.1597 46.8631 24.106 43.935 21.1646L43.9347 21.1643C41.0022 18.2233 36.9708 16.4062 32.5 16.4062C28.0296 16.4062 23.9931 18.2232 21.0651 21.1646L21.0648 21.1649C18.1372 24.1108 16.3292 28.1595 16.3292 32.6484C16.3292 37.1372 18.137 41.1909 21.0651 44.1323L21.0654 44.1326C23.9979 47.0735 28.0293 48.8907 32.5 48.8907Z" fill="url(#paint2_linear_31:116)" stroke="#B760E2"/>
<path d="M41.1056 24.0045L41.1063 24.0052C43.309 26.2134 44.6744 29.2754 44.6698 32.6477V32.6484C44.6698 36.0218 43.3085 39.0886 41.1063 41.2963C38.9031 43.5049 35.8553 44.8758 32.5 44.8758C29.144 44.8758 26.0921 43.5092 23.8945 41.297C21.6959 39.0837 20.3303 36.0211 20.3303 32.6484C20.3303 29.2757 21.6958 26.2131 23.8944 23.9998C26.0925 21.7919 29.1446 20.4209 32.5 20.4209C35.8603 20.4209 38.9075 21.7918 41.1056 24.0045ZM24.8751 40.3048L24.8755 40.3053C26.8316 42.2652 29.5179 43.4765 32.5 43.4765C35.4818 43.4765 38.1733 42.2655 40.125 40.3048L40.1255 40.3044C42.0765 38.3395 43.2813 35.6419 43.2813 32.6484C43.2813 29.6551 42.0767 26.9524 40.125 24.9919L40.1246 24.9914C38.1685 23.0315 35.4822 21.8202 32.5 21.8202C29.5179 21.8202 26.8316 23.0315 24.8755 24.9914L24.8746 24.9923C22.9236 26.9572 21.7188 29.6548 21.7188 32.6484C21.7188 35.6416 22.9234 38.3443 24.8751 40.3048Z" fill="url(#paint3_linear_31:116)" stroke="#B760E2"/>
<path d="M20.4584 15.6962L20.4572 15.6975C19.877 16.2803 19.0601 16.6465 18.1742 16.6465C17.2878 16.6465 16.4758 16.2847 15.8912 15.6975C15.3111 15.1147 14.9456 14.293 14.9456 13.4009C14.9456 12.5074 15.3073 11.6868 15.89 11.1056L15.89 11.1056L15.8912 11.1043C16.4714 10.5215 17.2883 10.1553 18.1742 10.1553C19.0616 10.1553 19.8774 10.5177 20.4559 11.103L20.4572 11.1043C21.0374 11.6871 21.4028 12.5088 21.4028 13.4009C21.4028 14.2944 21.0411 15.115 20.4584 15.6962ZM16.8756 12.0927L16.8756 12.0927L16.8721 12.0961C16.5384 12.4313 16.334 12.8885 16.334 13.4009C16.334 13.9159 16.5403 14.3658 16.8687 14.7022L16.8687 14.7022L16.8721 14.7057C17.2059 15.0409 17.662 15.2472 18.1742 15.2472C18.689 15.2472 19.1379 15.0391 19.4728 14.7091L19.4729 14.7091L19.4763 14.7057C19.81 14.3705 20.0144 13.9133 20.0144 13.4009C20.0144 12.8859 19.8081 12.436 19.4797 12.0996L19.4797 12.0996L19.4763 12.0961C19.1425 11.7609 18.6864 11.5546 18.1742 11.5546C17.6594 11.5546 17.2105 11.7627 16.8756 12.0927Z" fill="url(#paint4_linear_31:116)" stroke="#B760E2"/>
<defs>
<linearGradient id="paint0_linear_31:116" x1="-18.5" y1="47.2057" x2="15.7188" y2="66.6705" gradientUnits="userSpaceOnUse">
<stop stop-color="#00519C"/>
<stop offset="1" stop-color="#760D81"/>
</linearGradient>
<linearGradient id="paint1_linear_31:116" x1="0.295965" y1="14.1624" x2="34.5148" y2="33.6274" gradientUnits="userSpaceOnUse">
<stop stop-color="#00519C"/>
<stop offset="1" stop-color="#760D81"/>
</linearGradient>
<linearGradient id="paint2_linear_31:116" x1="0.295892" y1="14.1628" x2="34.5149" y2="33.6278" gradientUnits="userSpaceOnUse">
<stop stop-color="#00519C"/>
<stop offset="1" stop-color="#760D81"/>
</linearGradient>
<linearGradient id="paint3_linear_31:116" x1="0.295978" y1="14.1627" x2="34.515" y2="33.6278" gradientUnits="userSpaceOnUse">
<stop stop-color="#00519C"/>
<stop offset="1" stop-color="#760D81"/>
</linearGradient>
<linearGradient id="paint4_linear_31:116" x1="5.02411" y1="5.85104" x2="39.2427" y2="25.3159" gradientUnits="userSpaceOnUse">
<stop stop-color="#00519C"/>
<stop offset="1" stop-color="#760D81"/>
</linearGradient>
</defs>
</svg>
