<svg width="75" height="77" viewBox="0 0 75 77" fill="none" xmlns="http://www.w3.org/2000/svg">
<path d="M34.0941 36.0271C33.8553 35.7884 33.5315 35.6543 33.1938 35.6543C32.8562 35.6543 32.5323 35.7884 32.2935 36.0271C31.8404 36.5187 31.2903 36.911 30.678 37.1794C30.0656 37.4477 29.4043 37.5863 28.7357 37.5863C28.0671 37.5863 27.4058 37.4477 26.7935 37.1794C26.1811 36.911 25.631 36.5187 25.1779 36.0271C24.9374 35.7955 24.6156 35.6676 24.2817 35.6709C23.9478 35.6743 23.6286 35.8087 23.3928 36.0451C23.157 36.2816 23.0236 36.6011 23.0212 36.935C23.0187 37.2689 23.1476 37.5904 23.3799 37.8302C24.8499 39.2884 26.8188 40.1341 28.8885 40.1962C29.8713 40.1753 30.8395 39.9549 31.7344 39.5481C32.6293 39.1414 33.4322 38.5569 34.0941 37.8302C34.2127 37.7119 34.3068 37.5714 34.371 37.4167C34.4352 37.262 34.4682 37.0962 34.4682 36.9287C34.4682 36.7612 34.4352 36.5953 34.371 36.4406C34.3068 36.2859 34.2127 36.1454 34.0941 36.0271Z" fill="#0B0D39"/>
<path d="M45.4424 40.1939C46.4252 40.173 47.3934 39.9526 48.2883 39.5458C49.1832 39.1391 49.986 38.5546 50.648 37.8279C50.88 37.5878 51.0083 37.2661 51.0054 36.9322C51.0025 36.5984 50.8686 36.279 50.6325 36.0429C50.3964 35.8068 50.077 35.6729 49.7431 35.67C49.4093 35.6671 49.0876 35.7954 48.8474 36.0274C48.3943 36.519 47.8442 36.9113 47.2318 37.1796C46.6195 37.448 45.9582 37.5865 45.2896 37.5865C44.621 37.5865 43.9597 37.448 43.3474 37.1796C42.735 36.9113 42.1849 36.519 41.7318 36.0274C41.4913 35.7957 41.1694 35.6678 40.8356 35.6712C40.5017 35.6746 40.1825 35.8089 39.9467 36.0454C39.7109 36.2818 39.5775 36.6014 39.575 36.9353C39.5726 37.2692 39.7014 37.5907 39.9338 37.8305C41.4042 39.2878 43.3731 40.1325 45.4424 40.1939Z" fill="#0B0D39"/>
<path d="M41.2071 47.4891C37.168 51.527 33.2574 47.9182 32.8181 47.4891C32.5776 47.2574 32.2558 47.1295 31.9219 47.1329C31.588 47.1362 31.2688 47.2706 31.033 47.5071C30.7972 47.7435 30.6638 48.0631 30.6613 48.397C30.6589 48.7309 30.7878 49.0523 31.0201 49.2922C32.6647 50.9238 34.8676 51.87 37.1832 51.9395C38.2829 51.9163 39.3663 51.6696 40.3675 51.2145C41.3688 50.7594 42.2671 50.1053 43.0077 49.2922C43.2396 49.052 43.368 48.7304 43.3651 48.3965C43.3622 48.0626 43.2283 47.7432 42.9922 47.5071C42.7561 47.271 42.4367 47.1371 42.1028 47.1342C41.7689 47.1313 41.4473 47.2597 41.2071 47.4916V47.4891Z" fill="#0B0D39"/>
<path d="M18.732 21.5634C19.0472 21.6844 19.3977 21.6753 19.7062 21.538C20.0147 21.4007 20.2561 21.1464 20.3772 20.8312C21.4627 17.7888 23.3434 15.0927 25.8237 13.0233C28.3041 10.9538 31.2935 9.58665 34.4812 9.06384C37.7556 8.41923 41.1184 8.36017 44.4135 8.88939C44.7404 8.94474 45.076 8.87042 45.3489 8.68223C45.6219 8.49405 45.8106 8.20684 45.8752 7.88165C45.9397 7.55646 45.8748 7.21893 45.6944 6.94081C45.5139 6.66269 45.2321 6.46591 44.9089 6.39229C44.7077 6.35282 24.6799 2.56196 18.0023 19.9169C17.9421 20.0729 17.9132 20.2392 17.9173 20.4064C17.9214 20.5736 17.9584 20.7383 18.0261 20.8912C18.0939 21.0441 18.1911 21.1822 18.3122 21.2975C18.4333 21.4128 18.5759 21.5032 18.732 21.5634Z" fill="#0B0D39"/>
<path d="M44.5153 11.4678C36.563 12.7329 29.4056 17.0179 24.5347 23.43C24.3321 23.7002 24.2451 24.0398 24.2928 24.3741C24.3406 24.7084 24.5192 25.0101 24.7894 25.2127C25.0596 25.4153 25.3992 25.5024 25.7335 25.4546C26.0678 25.4068 26.3695 25.2282 26.5721 24.958C31.0537 19.1443 37.5604 15.2317 44.7968 13.9993C45.1325 13.9618 45.4395 13.7925 45.6504 13.5286C45.8612 13.2648 45.9586 12.9279 45.9212 12.5922C45.8837 12.2565 45.7144 11.9495 45.4505 11.7386C45.1866 11.5277 44.8498 11.4303 44.5141 11.4678H44.5153Z" fill="#0B0D39"/>
<path d="M55.2156 27.64C55.4558 27.872 55.7775 28.0003 56.1113 27.9974C56.4452 27.9945 56.7646 27.8606 57.0007 27.6245C57.2368 27.3884 57.3707 27.069 57.3736 26.7352C57.3765 26.4013 57.2482 26.0796 57.0162 25.8395C55.1214 23.9383 52.9312 17.3167 52.2474 14.9291C52.1545 14.6044 51.9364 14.3299 51.6412 14.1659C51.3459 14.002 50.9976 13.9621 50.6728 14.055C50.3481 14.1478 50.0736 14.3659 49.9097 14.6612C49.7457 14.9565 49.7058 15.3048 49.7987 15.6295C50.0686 16.5743 52.5135 24.9379 55.2156 27.64Z" fill="#0B0D39"/>
<path d="M5.37671 76.3838C5.65616 76.34 5.91326 76.205 6.1079 75.9997C6.30255 75.7945 6.42379 75.5306 6.45271 75.2492C6.57918 74.3961 6.87395 73.5766 7.3199 72.8383C7.76586 72.1001 8.35409 71.4579 9.05041 70.949C9.11663 70.9006 9.1943 70.865 9.26307 70.8217C9.09242 71.3933 9.00368 71.9862 8.99948 72.5827V75.1295C8.99948 75.4672 9.13364 75.7911 9.37244 76.0299C9.61125 76.2687 9.93513 76.4029 10.2729 76.4029H63.7549C64.0926 76.4029 64.4165 76.2687 64.6553 76.0299C64.8941 75.7911 65.0283 75.4672 65.0283 75.1295V72.5827C65.0274 71.8164 64.8871 71.0565 64.6144 70.3403C65.0481 70.5355 65.454 70.7872 65.8216 71.0891C66.3777 71.5889 66.8215 72.201 67.1238 72.885C67.426 73.5689 67.5798 74.3092 67.575 75.0569C67.5579 75.3554 67.6464 75.6504 67.825 75.8902C68.0036 76.13 68.2608 76.2993 68.5517 76.3685C68.649 76.3913 68.7485 76.4028 68.8484 76.4029C69.0963 76.403 69.3388 76.3308 69.5462 76.1951C69.7536 76.0593 69.9169 75.8661 70.0161 75.6389C77.3228 58.8875 73.3269 51.6993 69.0967 44.0768C66.4761 39.3577 63.7663 34.4794 63.7549 26.7805C63.8096 25.8687 64.2859 15.1749 57.1218 7.50149C52.4765 2.52384 45.7111 0 37.0139 0C36.5389 0 25.2988 0.0904096 17.4662 7.97901C12.6273 12.8535 10.2079 19.5973 10.2729 28.0246C10.3671 40.067 7.0321 45.1656 4.09059 49.6619C0.270446 55.5093 -2.75256 60.1278 4.01164 75.6389C4.12492 75.8964 4.3203 76.1091 4.56725 76.2439C4.81421 76.3787 5.09884 76.4279 5.37671 76.3838ZM62.4815 72.5827V73.8561H11.5462V72.5827C11.5472 71.9919 11.6858 71.4093 11.9511 70.8813C12.2163 70.3532 12.6009 69.8942 13.0743 69.5406C15.034 69.3827 17.0064 69.5396 18.9166 70.0054C22.5508 70.8128 25.2618 70.3098 27.1464 68.5143C27.8192 67.8937 28.3489 67.1342 28.6987 66.2884C28.9981 65.6194 29.2182 64.9177 29.3545 64.1975C29.5194 63.3392 29.6047 62.4675 29.6092 61.5935C29.6338 60.4631 29.5485 59.3329 29.3545 58.219C29.3545 58.2101 29.3456 58.2037 29.343 58.1948C29.3055 58.0285 29.2345 57.8717 29.1342 57.7338C29.1176 57.7097 29.1036 57.688 29.0845 57.6651C29.0012 57.5583 28.901 57.4658 28.7878 57.3913C26.9215 56.1822 25.2855 54.6501 23.9566 52.867C22.5998 50.9586 21.5417 48.8546 20.819 46.6274L20.791 46.5434C20.5834 45.9143 20.3924 45.2483 20.2167 44.5518C20.2027 44.492 20.1874 44.4347 20.1721 44.3748C19.993 43.6549 19.8343 42.9007 19.6959 42.112L19.6857 42.0585C19.4272 40.4415 19.2732 38.8094 19.2247 37.1726C19.2324 36.9599 19.2387 36.7472 19.2489 36.5359C23.134 35.1453 37.7384 29.5425 43.8035 21.785C44.3871 25.0673 45.6731 28.1846 47.5736 30.9236C49.4741 33.6626 51.9441 35.9584 54.8145 37.6539C54.8018 41.348 54.0897 45.0064 52.7159 48.4356C51.1636 52.0925 48.5642 55.2084 45.245 57.3913C45.1479 57.4565 45.0619 57.5369 44.9903 57.6294C44.9424 57.6861 44.8997 57.747 44.863 57.8115C44.8351 57.865 44.8101 57.9198 44.7879 57.9758C44.7431 58.0529 44.7064 58.1344 44.6784 58.219C44.4861 59.3346 44.4144 60.4676 44.4644 61.5986C44.4644 61.703 44.4721 61.8061 44.4772 61.9144C44.4772 61.992 44.4899 62.0697 44.4963 62.1487C44.5494 63.1568 44.7484 64.1519 45.0871 65.1029C45.0986 65.1398 45.1113 65.1755 45.124 65.2124C45.2106 65.4556 45.3099 65.7014 45.4207 65.9408L45.4449 65.9905C45.4755 66.0554 45.5048 66.1178 45.5366 66.1866C45.585 66.2782 45.6398 66.3699 45.6932 66.4629C46.0255 67.0823 46.4449 67.651 46.9386 68.1514C46.9602 68.173 46.9857 68.1883 47.0061 68.2087C47.1054 68.3169 47.1856 68.4022 47.2251 68.443C47.3817 68.5818 47.5549 68.6977 47.723 68.825C47.7485 68.8428 47.7727 68.8619 47.7969 68.881C48.0561 69.0649 48.327 69.2317 48.608 69.3802C48.6538 69.4044 48.6997 69.4324 48.7468 69.4553C49.0182 69.5907 49.2976 69.7094 49.5834 69.8106C49.6535 69.8361 49.7197 69.8654 49.791 69.8883C50.0733 69.9795 50.3602 70.056 50.6505 70.1175C50.7435 70.1379 50.8326 70.1646 50.9281 70.1824C51.2133 70.2372 51.5126 70.2716 51.8195 70.3021C51.9341 70.3136 52.0423 70.3314 52.1582 70.3403C52.4587 70.3607 52.7745 70.362 53.0916 70.3594C53.2189 70.3594 53.3463 70.3671 53.4736 70.3594C53.8072 70.348 54.1561 70.3161 54.5076 70.2805C54.6349 70.269 54.7495 70.2652 54.8769 70.2499C55.3582 70.1913 55.8548 70.1124 56.3667 70.0092C56.8786 69.9061 57.3727 69.8259 57.854 69.7546L58.1087 69.7227C58.5276 69.6693 58.9364 69.6247 59.3312 69.5954L59.4967 69.5827C59.9279 69.5555 60.3439 69.5445 60.7446 69.5496C60.765 69.5496 60.7866 69.5496 60.807 69.5496C60.8719 69.5496 60.9343 69.5597 60.9955 69.561C61.459 69.9164 61.8343 70.3739 62.092 70.898C62.3498 71.4221 62.4831 71.9987 62.4815 72.5827ZM6.22223 51.0626C9.20576 46.4988 12.9189 40.8208 12.8209 28.0144C12.7623 20.3028 14.9283 14.174 19.2591 9.80504C26.3238 2.65373 36.9107 2.54676 37.0139 2.54676C44.9661 2.54676 51.1 4.79301 55.2449 9.2231C61.8219 16.2484 61.2196 26.5526 61.2081 26.6557C61.2081 26.6837 61.2081 26.713 61.2081 26.741C61.2081 35.1211 64.2158 40.5356 66.8696 45.3133C70.635 52.094 73.9279 58.0216 69.0929 71.1222C68.682 70.3916 68.1483 69.7373 67.5152 69.1879C66.2963 68.177 64.8291 67.5105 63.2659 67.2575C64.6063 65.7062 65.5748 63.8694 66.0976 61.8871C66.6204 59.9047 66.6836 57.8292 66.2825 55.8187C66.2586 55.6506 66.2012 55.489 66.1138 55.3434C66.0265 55.1978 65.9108 55.0711 65.7738 54.9709C65.6368 54.8706 65.4811 54.7988 65.3158 54.7596C65.1506 54.7204 64.9792 54.7146 64.8118 54.7427C64.6443 54.7707 64.4841 54.8319 64.3407 54.9228C64.1972 55.0136 64.0734 55.1322 63.9764 55.2716C63.8795 55.4111 63.8114 55.5685 63.7762 55.7346C63.741 55.9007 63.7394 56.0721 63.7714 56.2389C64.1751 58.0862 64.0797 60.0076 63.4949 61.8058C62.9101 63.604 61.8571 65.214 60.4441 66.4705C60.2668 66.6113 60.1315 66.798 60.0532 67.0104L59.838 67.0219C59.6355 67.0295 59.4305 67.0423 59.2229 67.0563C58.8778 67.0792 58.5238 67.1136 58.1635 67.1556C57.9725 67.1772 57.7814 67.1964 57.5879 67.2231C57.0289 67.3008 56.4584 67.3924 55.8688 67.5109C55.4613 67.5907 55.0679 67.6556 54.6884 67.7057C54.6426 67.7057 54.6005 67.7133 54.5611 67.7184C54.3395 67.7452 54.1281 67.7605 53.9155 67.777C55.9982 65.6443 57.2327 62.8259 57.388 59.8489C57.388 59.5112 57.2538 59.1873 57.015 58.9485C56.7762 58.7097 56.4523 58.5756 56.1146 58.5756C55.7769 58.5756 55.453 58.7097 55.2142 58.9485C54.9754 59.1873 54.8412 59.5112 54.8412 59.8489C54.8412 63.5226 51.6578 66.5533 50.5996 67.4612C49.9351 67.2482 49.3261 66.8903 48.8168 66.4132C48.4955 66.0491 48.2039 65.6599 47.9446 65.2493C47.8397 65.0682 47.7445 64.8816 47.6593 64.6903C47.6351 64.6343 47.6097 64.5859 47.588 64.5273C47.4873 64.2617 47.4023 63.9905 47.3334 63.7149C47.3168 63.6538 47.2977 63.5876 47.2824 63.5316C47.1412 62.9204 47.056 62.2977 47.0277 61.6711C47.0277 61.6126 47.0214 61.5553 47.0188 61.4992C47.0099 61.2611 47.0086 61.0345 47.0112 60.8167C47.0188 60.2959 47.0562 59.7759 47.1232 59.2594C49.4421 57.8344 57.388 51.8814 57.388 36.9281C57.388 36.6993 57.3264 36.4747 57.2097 36.278C57.0929 36.0813 56.9254 35.9196 56.7245 35.81C56.5272 35.7018 56.3591 35.5796 56.1681 35.4688C55.6944 35.1912 55.2181 34.9136 54.7865 34.6143C54.6591 34.5265 54.5521 34.4297 54.4286 34.3406C53.9766 34.012 53.5296 33.6822 53.1247 33.3346C53.0445 33.2671 52.9795 33.1932 52.9006 33.1245C52.474 32.7425 52.0601 32.3604 51.6845 31.9784C51.6387 31.93 51.6017 31.8791 51.5572 31.8294C51.165 31.4118 50.7931 30.9877 50.4531 30.5561C50.4302 30.5268 50.4124 30.4962 50.3895 30.4669C47.6196 26.8294 46.0592 22.4153 45.9275 17.8452C45.9314 17.5462 45.8299 17.2553 45.6409 17.0236C45.4518 16.7919 45.1872 16.6342 44.8935 16.578C44.5998 16.5218 44.2957 16.5708 44.0345 16.7163C43.7733 16.8619 43.5716 17.0947 43.4648 17.374C43.2916 17.8131 43.0861 18.2388 42.8498 18.6474C42.8141 18.7098 42.7797 18.7747 42.7441 18.8333C40.6723 22.3364 36.1556 25.637 31.2034 28.3837C27.0993 30.5976 22.8397 32.5102 18.4582 34.1063C18.2035 34.1979 17.9322 34.296 17.6839 34.3813L17.5082 34.4424C17.2544 34.5276 17.0339 34.6905 16.878 34.9081C16.7221 35.1258 16.6387 35.387 16.6398 35.6547C16.6398 36.164 16.6703 36.6403 16.6856 37.1318C16.6856 37.235 16.678 37.3266 16.6754 37.4323C16.6831 37.6272 16.7034 37.8143 16.7123 38.0066C16.734 38.4077 16.7595 38.7999 16.7913 39.187C16.8257 39.6365 16.8702 40.0784 16.9186 40.5203C16.9645 40.9265 17.0116 41.3276 17.0676 41.7173C17.1236 42.1069 17.1873 42.4724 17.2535 42.8455C17.3261 43.2593 17.3987 43.6744 17.4827 44.0705C17.5464 44.3723 17.6228 44.6651 17.6941 44.9618C17.8011 45.4024 17.9068 45.843 18.0265 46.2607C18.0889 46.4784 18.1615 46.6898 18.2277 46.905C18.3767 47.3825 18.5269 47.855 18.6899 48.2994C18.7498 48.4598 18.8172 48.6139 18.8758 48.7731C19.0656 49.2608 19.2578 49.737 19.4629 50.1865C19.5316 50.338 19.6055 50.4832 19.6768 50.6322C19.8869 51.0741 20.1008 51.5006 20.3211 51.9056C20.423 52.0915 20.5287 52.2723 20.6331 52.4544C20.8266 52.7855 21.0151 53.1038 21.2163 53.4069C21.3067 53.5482 21.3869 53.6985 21.4799 53.8373C21.5283 53.9048 21.5818 53.9646 21.6314 54.0321C23.0271 56.1087 24.8254 57.8841 26.9198 59.253C27.0266 60.0331 27.0734 60.8202 27.0598 61.6075C27.0598 61.6469 27.0598 61.6839 27.0598 61.7234C27.0598 61.8507 27.0484 61.978 27.042 62.1054C27.0541 63.7618 26.4732 65.3679 25.4044 66.6335C24.9028 67.1115 24.2853 67.4507 23.6128 67.6178C22.8157 66.9633 19.1865 63.771 19.1865 59.8489C19.1865 59.5112 19.0524 59.1873 18.8136 58.9485C18.5748 58.7097 18.2509 58.5756 17.9131 58.5756C17.5754 58.5756 17.2515 58.7097 17.0127 58.9485C16.7739 59.1873 16.6398 59.5112 16.6398 59.8489C16.784 62.7505 17.9647 65.5041 19.9671 67.6089C19.7965 67.5771 19.6437 67.5593 19.4578 67.5198C18.802 67.3746 18.1665 67.2562 17.5477 67.1632H17.5197C16.3377 66.9819 15.142 66.9056 13.9466 66.9353C13.8642 66.7538 13.7398 66.5944 13.5836 66.4705C12.1758 65.2102 11.1263 63.5998 10.5417 61.8029C9.9571 60.006 9.8582 58.0864 10.255 56.2389C10.302 55.9098 10.2184 55.5754 10.0221 55.3071C9.82585 55.0389 9.53244 54.858 9.20459 54.8031C8.87673 54.7482 8.54042 54.8237 8.26749 55.0135C7.99456 55.2033 7.80666 55.4922 7.74392 55.8187C7.33729 57.8526 7.40687 59.9531 7.94722 61.9556C8.48757 63.9582 9.48403 65.8086 10.8586 67.3619C9.65396 67.6645 8.51701 68.1911 7.50707 68.9141C6.52886 69.631 5.70839 70.5412 5.09656 71.5882C0.518755 59.7802 2.95091 56.0606 6.22223 51.0626Z" fill="#0B0D39"/>
</svg>
