<svg width="95" height="75" viewBox="0 0 95 75" fill="none" xmlns="http://www.w3.org/2000/svg">
<path fill-rule="evenodd" clip-rule="evenodd" d="M30.488 37.1927V48.5816H26.8795L16.9229 60.6301H14.7145V50.5511L30.488 37.1927ZM43.5064 37.1856L56.9575 48.5816H43.5064V37.1856ZM53.2063 31.6825H71.3142V47.0222L53.2063 31.6825ZM43.5064 31.6825H49.0285L68.9739 48.5816H61.1305L43.5064 33.652V31.6825ZM24.9659 31.6825H30.4868V33.6508L12.877 48.5816H5.02646L24.9659 31.6825ZM2.69211 31.6825H20.8L2.69211 47.0234V31.6825ZM74.0063 23.2187H91.8539V60.6301H71.3142V71.3142H68.7695L60.3449 60.6301H40.6158V51.2761H74.0063V23.2187ZM71.3142 4.25865V20.5195H52.1164L71.3142 4.25865ZM2.69211 4.25865L21.8828 20.5195H2.69211V4.25865ZM61.1305 2.70519H68.9799L47.9398 20.5195H43.5064V17.636L61.1305 2.70519ZM43.5064 2.70519H56.9575L43.5064 14.0964V2.70519ZM33.1801 2.70519H40.8131V16.3797L40.7073 16.4653L40.8131 16.5948V23.2175H48.773L48.8419 23.2924L48.9358 23.2175H71.3142V28.988H40.8131V48.5792H33.1801V28.9904H2.69211V23.2199H25.0705L25.1644 23.2948L25.2262 23.2199H33.1801V16.6091L33.2966 16.4665L33.1801 16.3737V2.70519ZM17.037 2.70519H30.488V14.0893L17.037 2.70519ZM5.02527 2.70519H12.8758L30.4868 17.6372V20.5207H26.0546L5.02527 2.70519ZM0 0V51.2761H12.0093V63.3353H18.1863L28.1525 51.2761H37.9142V63.3353H59.0375L67.4561 74.0206H74.0063V63.3353H94.546V20.5195H74.0063V0H0Z" fill="#0B0D39"/>
</svg>
