<svg width="81" height="80" viewBox="0 0 81 80" fill="none" xmlns="http://www.w3.org/2000/svg">
<path d="M40 0C51.0472 0 61.0526 4.4878 68.28 11.729C75.529 18.9702 80 28.9648 80 40C80 51.0352 75.529 61.0298 68.28 68.271C61.0309 75.5122 51.0255 80 40 80C28.9745 80 18.9474 75.5122 11.72 68.271C4.47097 61.0298 0 51.0352 0 40C0 28.9648 4.47097 18.9702 11.72 11.729C18.9691 4.4878 28.9528 0 40 0ZM66.522 13.4851C59.7287 6.69919 50.3527 2.51491 40 2.51491C29.6473 2.51491 20.2713 6.72087 13.478 13.4851C6.68475 20.271 2.49593 29.6585 2.49593 40C2.49593 50.3415 6.68475 59.729 13.478 66.5149C20.2713 73.3008 29.6473 77.4851 40 77.4851C50.3527 77.4851 59.7287 73.2791 66.522 66.5149C73.3152 59.729 77.5041 50.3415 77.5041 40C77.5041 29.6585 73.3152 20.271 66.522 13.4851Z" fill="#B760E2"/>
<path d="M70.9278 65.3662C67.1948 69.8974 62.4851 73.6047 57.1243 76.1413C51.9371 78.6128 46.1205 79.9787 40 79.9787C33.8795 79.9787 28.0629 78.5911 22.8757 76.1413C17.4715 73.583 12.7618 69.854 9.00705 65.2795C8.57298 64.7375 8.65979 63.957 9.18068 63.5234C9.31091 63.415 9.46283 63.3283 9.61476 63.2849C14.3679 61.3554 19.338 59.8594 24.4384 58.8621C29.4737 57.8649 34.6826 57.3662 39.9783 57.3662C45.2957 57.3662 50.4829 57.8865 55.5182 58.8621C60.662 59.8811 65.6755 61.3771 70.4721 63.3283L69.9946 64.4773L70.4721 63.3283C71.1015 63.5884 71.427 64.3256 71.1666 64.9543C71.1232 65.1277 71.0364 65.2578 70.9278 65.3662ZM56.0608 73.9082C60.5969 71.7619 64.6337 68.7266 67.9327 65.0193C63.809 63.4367 59.49 62.2009 55.0624 61.3337C50.1791 60.3798 45.1438 59.8811 40 59.8811C34.8345 59.8811 29.7992 60.3798 24.9376 61.3337C20.4883 62.2009 16.191 63.4367 12.0673 65.0193C15.388 68.705 19.4031 71.7619 23.9392 73.9082C28.8009 76.228 34.2485 77.5071 40 77.5071C45.7515 77.5071 51.1991 76.2063 56.0608 73.9082Z" fill="#B760E2"/>
<path d="M67.9545 14.981C64.6338 11.2954 60.6186 8.23848 56.0825 6.09214C51.2209 3.77236 45.7732 2.49323 40.0217 2.49323C34.2703 2.49323 28.8226 3.79404 23.961 6.09214C19.4249 8.23848 15.388 11.2737 12.089 14.981C16.2127 16.5637 20.5318 17.7995 24.9593 18.6667C29.8427 19.6206 34.878 20.1192 40.0217 20.1192C45.1872 20.1192 50.2225 19.6206 55.0841 18.6667C59.5117 17.7995 63.809 16.5637 67.9545 14.981ZM57.1243 3.8374C62.4851 6.37398 67.1948 10.0813 70.9279 14.6125C71.0364 14.7209 71.1232 14.8509 71.1883 15.0027C71.4488 15.6314 71.1449 16.3686 70.4938 16.6287L70.0163 15.4797L70.4938 16.6287C65.6973 18.5799 60.7054 20.0976 55.5399 21.0949C50.5047 22.0921 45.2958 22.5908 40 22.5908C34.6826 22.5908 29.4954 22.0705 24.4602 21.0949C19.3381 20.1192 14.3896 18.6233 9.6365 16.6938C9.48458 16.6504 9.33265 16.5637 9.20243 16.4553C8.65984 16.0217 8.59472 15.2412 9.0288 14.6992C12.7618 10.1247 17.4933 6.39566 22.8975 3.8374C28.063 1.38753 33.8796 0 40 0C46.1205 0 51.9371 1.38753 57.1243 3.8374Z" fill="#B760E2"/>
<path d="M40 0C46.1422 0 51.6332 4.59621 55.5399 12.0108C59.3163 19.187 61.6603 29.0949 61.6603 40C61.6603 50.9051 59.3163 60.7913 55.5399 67.9892C51.6332 75.4038 46.1422 80 40 80C33.8578 80 28.3668 75.4038 24.4601 67.9892C20.6837 60.813 18.3397 50.9051 18.3397 40C18.3397 29.0949 20.6837 19.2087 24.4601 12.0108C28.3668 4.59621 33.8578 0 40 0ZM53.3478 13.1816C49.8752 6.59079 45.1438 2.49322 40.0217 2.49322C34.8779 2.49322 30.1682 6.56911 26.6956 13.1816C23.0711 20.0108 20.8356 29.5068 20.8356 40C20.8356 50.4932 23.0711 59.9892 26.6739 66.8184C30.1465 73.4092 34.8779 77.5068 40 77.5068C45.1438 77.5068 49.8535 73.4309 53.3261 66.8184C56.9289 59.9675 59.1644 50.4932 59.1644 40C59.1644 29.5068 56.9506 20.0108 53.3478 13.1816Z" fill="#B760E2"/>
<path d="M1.25882 38.7422C0.564297 38.7422 0 39.3059 0 39.9996C0 40.6934 0.564297 41.2571 1.25882 41.2571H78.7629C79.4574 41.2571 80.0217 40.6934 80.0217 39.9996C80.0217 39.3059 79.4574 38.7422 78.7629 38.7422H1.25882Z" fill="#B760E2"/>
</svg>
