<svg width="91" height="82" viewBox="0 0 91 82" fill="none" xmlns="http://www.w3.org/2000/svg">
<path d="M85.5317 64.6182H5.46829C2.45273 64.6182 0 62.1428 0 59.0993V5.51889C0 2.47543 2.45273 0 5.46829 0H85.5317C88.5473 0 91 2.47543 91 5.51889V59.0993C91 62.1428 88.5473 64.6182 85.5317 64.6182ZM5.46829 2.87006C4.02272 2.87006 2.84375 4.05994 2.84375 5.51889V59.0993C2.84375 60.5583 4.02272 61.7481 5.46829 61.7481H85.5317C86.9773 61.7481 88.1562 60.5583 88.1562 59.0993V5.51889C88.1562 4.05994 86.9773 2.87006 85.5317 2.87006H5.46829Z" fill="white"/>
<path d="M85.5317 64.6182H5.46829C2.45273 64.6182 0 62.1428 0 59.0993V5.51889C0 2.47543 2.45273 0 5.46829 0H85.5317C88.5473 0 91 2.47543 91 5.51889V59.0993C91 62.1428 88.5473 64.6182 85.5317 64.6182ZM5.46829 2.87006C4.02272 2.87006 2.84375 4.05994 2.84375 5.51889V59.0993C2.84375 60.5583 4.02272 61.7481 5.46829 61.7481H85.5317C86.9773 61.7481 88.1562 60.5583 88.1562 59.0993V5.51889C88.1562 4.05994 86.9773 2.87006 85.5317 2.87006H5.46829Z" fill="#B760E2"/>
<path d="M89.5781 52.54H1.42188C0.633919 52.54 0 51.9002 0 51.105C0 50.3097 0.633919 49.6699 1.42188 49.6699H89.5781C90.3661 49.6699 91 50.3097 91 51.105C91 51.8942 90.3661 52.54 89.5781 52.54Z" fill="white"/>
<path d="M89.5781 52.54H1.42188C0.633919 52.54 0 51.9002 0 51.105C0 50.3097 0.633919 49.6699 1.42188 49.6699H89.5781C90.3661 49.6699 91 50.3097 91 51.105C91 51.8942 90.3661 52.54 89.5781 52.54Z" fill="#B760E2"/>
<path d="M39.0009 73.3539C38.2129 73.3539 37.579 72.7141 37.579 71.9188V63.1831C37.579 62.3878 38.2129 61.748 39.0009 61.748C39.7888 61.748 40.4227 62.3878 40.4227 63.1831V71.9188C40.4227 72.7081 39.7888 73.3539 39.0009 73.3539Z" fill="white"/>
<path d="M39.0009 73.3539C38.2129 73.3539 37.579 72.7141 37.579 71.9188V63.1831C37.579 62.3878 38.2129 61.748 39.0009 61.748C39.7888 61.748 40.4227 62.3878 40.4227 63.1831V71.9188C40.4227 72.7081 39.7888 73.3539 39.0009 73.3539Z" fill="#B760E2"/>
<path d="M51.9991 73.3539C51.2112 73.3539 50.5773 72.7141 50.5773 71.9188V63.1831C50.5773 62.3878 51.2112 61.748 51.9991 61.748C52.7871 61.748 53.421 62.3878 53.421 63.1831V71.9188C53.421 72.7081 52.7812 73.3539 51.9991 73.3539Z" fill="white"/>
<path d="M51.9991 73.3539C51.2112 73.3539 50.5773 72.7141 50.5773 71.9188V63.1831C50.5773 62.3878 51.2112 61.748 51.9991 61.748C52.7871 61.748 53.421 62.3878 53.421 63.1831V71.9188C53.421 72.7081 52.7812 73.3539 51.9991 73.3539Z" fill="#B760E2"/>
<path d="M68.327 81.9997H22.673C21.885 81.9997 21.2511 81.3599 21.2511 80.5647C21.2511 75.267 25.5167 70.9619 30.7658 70.9619H60.2282C65.4773 70.9619 69.7429 75.267 69.7429 80.5647C69.7489 81.3539 69.109 81.9997 68.327 81.9997ZM24.2489 79.1296H66.7511C66.0994 76.1041 63.4215 73.832 60.2342 73.832H30.7658C27.5784 73.832 24.9065 76.1041 24.2489 79.1296Z" fill="white"/>
<path d="M68.327 81.9997H22.673C21.885 81.9997 21.2511 81.3599 21.2511 80.5647C21.2511 75.267 25.5167 70.9619 30.7658 70.9619H60.2282C65.4773 70.9619 69.7429 75.267 69.7429 80.5647C69.7489 81.3539 69.109 81.9997 68.327 81.9997ZM24.2489 79.1296H66.7511C66.0994 76.1041 63.4215 73.832 60.2342 73.832H30.7658C27.5784 73.832 24.9065 76.1041 24.2489 79.1296Z" fill="#B760E2"/>
</svg>
