<svg width="74" height="84" viewBox="0 0 74 84" fill="none" xmlns="http://www.w3.org/2000/svg">
<path d="M72.7043 18.5937C72.672 18.4642 72.6398 18.3509 72.6076 18.2214C72.5753 18.1081 72.527 17.9786 72.4786 17.8653C72.4303 17.752 72.3658 17.6387 72.3175 17.5254C72.2852 17.4769 72.253 17.4121 72.2208 17.3636C72.1563 17.2503 72.0757 17.1532 72.0112 17.056C71.8178 16.7971 71.5922 16.5705 71.3504 16.3763C71.2537 16.2953 71.1409 16.2144 71.0281 16.1497C70.9798 16.1173 70.9153 16.0849 70.8669 16.0525C70.7541 15.9878 70.6413 15.9231 70.5124 15.8745C70.3834 15.8259 70.2706 15.7612 70.1417 15.7288L54.4438 10.3876L53.8636 6.08225C53.5735 3.92958 51.5588 2.42433 49.3831 2.73185L36.9569 4.43133L27.593 1.21041C27.2061 1.08093 26.8032 1.01619 26.4164 1C26.2875 1 26.1585 1 26.0296 1C25.9651 1 25.9007 1.01619 25.8362 1.01619C24.9981 1.1133 24.2084 1.46938 23.5959 2.01969C23.1124 2.44051 22.7418 2.99082 22.5161 3.63824L21.5007 6.48689L4.67466 8.78524C2.48276 9.09276 0.935532 11.0836 1.24175 13.2201L6.1413 49.508L1.22564 63.2819C1.16117 63.4761 1.0967 63.6704 1.06447 63.8646C1.01612 64.1236 1 64.3825 1 64.6415C1 64.8357 1.01612 65.0299 1.04835 65.208C1.06447 65.3375 1.0967 65.4508 1.12894 65.5803C1.14505 65.645 1.16117 65.7097 1.17729 65.7583C1.25787 66.0011 1.35457 66.2277 1.48351 66.4543C1.51574 66.5028 1.54798 66.5676 1.58021 66.6161C1.70915 66.8265 1.87031 67.0369 2.03148 67.215C2.11207 67.3121 2.20877 67.393 2.30547 67.4901C2.45052 67.6196 2.59558 67.7329 2.77286 67.8462C2.82121 67.8786 2.88568 67.911 2.93403 67.9433C3.04685 68.0081 3.15967 68.0728 3.28861 68.1214C3.41754 68.1699 3.53036 68.2347 3.6593 68.267L8.91342 70.0475L9.67091 75.6962C9.96102 77.8489 11.9756 79.3541 14.1514 79.0466L29.2852 76.9911L46.208 82.7855C46.4014 82.8502 46.5948 82.8988 46.8043 82.9311C46.9977 82.9635 47.1912 82.9797 47.4007 82.9959C47.723 83.0121 48.0453 82.9797 48.3677 82.9149C48.5611 82.8826 48.7384 82.8178 48.9157 82.7531C49.0929 82.6883 49.2702 82.6074 49.4475 82.5103C49.6732 82.397 49.8827 82.2513 50.0922 82.0895C50.6402 81.6525 51.0753 81.0536 51.3332 80.3576L53.7024 73.7054L58.892 72.9932C61.0678 72.7019 62.6151 70.7111 62.325 68.5584L60.4554 54.7521L60.7455 53.9429L72.5914 20.714C72.6881 20.455 72.7526 20.196 72.7849 19.9371C72.801 19.8076 72.8171 19.6781 72.8171 19.5486C72.8332 19.2896 72.8171 19.0307 72.7687 18.7879C72.7365 18.7232 72.7204 18.6584 72.7043 18.5937ZM49.8343 6.24411C50.0277 6.21174 50.2211 6.35741 50.2373 6.55164L50.5757 9.06039L44.4835 6.98864L49.8343 6.24411ZM4.83583 12.7345C4.8036 12.5403 4.94865 12.3622 5.14205 12.3299L20.1308 10.2905L16.6173 20.1475L11.1376 20.892L11.6211 24.4366L15.2635 23.9349L8.8006 42.0627L4.83583 12.7345ZM13.684 75.5505C13.4906 75.5829 13.2972 75.4372 13.2811 75.243L12.7654 71.3909L17.3748 72.9608L21.7425 74.4499L13.684 75.5505ZM58.6986 69.044C58.7309 69.2382 58.5858 69.4162 58.3924 69.4486L55.024 69.9018L57.2159 63.7513L57.7639 62.1975L58.6986 69.044ZM69.1424 19.5324L56.7163 54.3799L50.9786 70.4521L47.8681 79.1761C47.8197 79.3056 47.6908 79.4027 47.5457 79.4189C47.4974 79.4189 47.449 79.4189 47.4007 79.4027L37.247 75.939L8.38156 66.0982L4.88418 64.9005C4.86807 64.9005 4.83583 64.8843 4.81971 64.8681C4.8036 64.8519 4.78748 64.8357 4.75525 64.8195C4.72301 64.7872 4.69078 64.7548 4.67466 64.7062C4.62631 64.6253 4.62631 64.5282 4.65855 64.4311L7.20502 57.3094L9.86432 49.8479L24.1762 9.70781L25.53 5.9204L25.9329 4.78741C25.949 4.77123 25.949 4.73886 25.9651 4.72267C26.0296 4.62556 26.1424 4.56082 26.2552 4.54463C26.3036 4.54463 26.3519 4.54463 26.4003 4.56082L28.9951 5.45102L36.554 8.02452L48.9801 12.2651L54.9756 14.3045L68.9329 19.063C68.949 19.063 68.9813 19.0792 68.9974 19.0954C69.0618 19.1278 69.1102 19.1925 69.1424 19.2411C69.1585 19.3544 69.1747 19.4515 69.1424 19.5324Z" fill="#B760E2" stroke="#D1E2FD"/>
<path d="M26.5615 18.3027L59.3917 29.4869L60.6005 26.1041L27.7703 14.9199L26.5615 18.3027Z" fill="#B760E2" stroke="#D1E2FD"/>
<path d="M22.9513 28.4345L55.7815 39.6187L56.9903 36.236L24.1601 25.0518L22.9513 28.4345Z" fill="#B760E2" stroke="#D1E2FD"/>
<path d="M19.3894 38.4043L52.2196 49.5885L53.4284 46.2057L20.5982 35.0215L19.3894 38.4043Z" fill="#B760E2" stroke="#D1E2FD"/>
<path d="M15.7148 48.7148L48.5451 59.899L49.7538 56.5162L16.9236 45.332L15.7148 48.7148Z" fill="#B760E2" stroke="#D1E2FD"/>
<path d="M12.7009 57.164L45.5311 68.3482L46.7399 64.9654L13.9097 53.7812L12.7009 57.164Z" fill="#B760E2" stroke="#D1E2FD"/>
</svg>
