<svg width="16" height="16" viewBox="0 0 16 16" fill="none" xmlns="http://www.w3.org/2000/svg">
<path d="M7.59903 0.00232818C6.31503 0.0178282 3.55453 0.228828 2.01053 1.64533C0.862029 2.78333 0.461029 4.46583 0.414029 6.54633C0.375029 8.61933 0.328029 12.5123 4.08053 13.5723V15.1868C4.08053 15.1868 4.05703 15.8328 4.48403 15.9653C5.01003 16.1318 5.30953 15.6348 5.80953 15.1008L6.74203 14.0463C9.30953 14.2598 11.276 13.7678 11.5025 13.6948C12.0235 13.5283 14.958 13.1533 15.4375 9.25983C15.9295 5.23883 15.198 2.70533 13.8775 1.55933H13.8695C13.471 1.19233 11.8695 0.0253282 8.29153 0.0123282C8.29153 0.0123282 8.02603 -0.00567182 7.59903 0.00182818V0.00232818ZM7.64303 1.13283C8.00753 1.13033 8.22903 1.14583 8.22903 1.14583C11.2575 1.15383 12.703 2.06533 13.044 2.37233C14.156 3.32533 14.729 5.60933 14.3095 8.96633C13.911 12.2213 11.531 12.4273 11.0905 12.5678C10.903 12.6278 9.17103 13.0548 6.98903 12.9143C6.98903 12.9143 5.36403 14.8753 4.85603 15.3803C4.77553 15.4688 4.68153 15.4948 4.62153 15.4818C4.53553 15.4608 4.50953 15.3543 4.51453 15.2083L4.53003 12.5288C1.34753 11.6488 1.53503 8.32833 1.56903 6.59383C1.60803 4.85933 1.93353 3.44033 2.90253 2.47933C4.20703 1.29983 6.55103 1.14083 7.64203 1.13283H7.64303ZM7.88303 2.86683C7.85684 2.86656 7.83085 2.87149 7.80657 2.88131C7.78229 2.89114 7.76019 2.90567 7.74155 2.92408C7.72291 2.94249 7.7081 2.9644 7.69797 2.98855C7.68784 3.01271 7.68259 3.03863 7.68253 3.06483C7.68253 3.17683 7.77353 3.26533 7.88303 3.26533C8.37878 3.2559 8.87149 3.34471 9.33275 3.52664C9.79401 3.70857 10.2147 3.98002 10.5705 4.32533C11.297 5.03083 11.651 5.97883 11.6645 7.21833C11.6645 7.32783 11.753 7.41883 11.865 7.41883V7.41083C11.9178 7.41096 11.9685 7.39023 12.0061 7.35314C12.0436 7.31605 12.065 7.26561 12.0655 7.21283C12.0898 6.6294 11.9952 6.04713 11.7874 5.50141C11.5797 4.95569 11.2631 4.45791 10.857 4.03833C10.0655 3.26483 9.06253 2.86633 7.88303 2.86633V2.86683ZM5.24753 3.32533C5.106 3.30465 4.96166 3.33306 4.83853 3.40583H4.82803C4.54216 3.5734 4.28464 3.78519 4.06503 4.03333C3.88253 4.24433 3.78353 4.45783 3.75753 4.66333C3.74203 4.78583 3.75253 4.90833 3.78903 5.02533L3.80203 5.03333C4.00753 5.63733 4.27603 6.21833 4.60403 6.76533C5.02654 7.53381 5.5465 8.24452 6.15103 8.87983L6.16903 8.90583L6.19753 8.92683L6.21553 8.94783L6.23653 8.96583C6.87414 9.57213 7.58657 10.0945 8.35653 10.5203C9.23653 10.9993 9.77053 11.2258 10.091 11.3198V11.3248C10.185 11.3533 10.2705 11.3663 10.3565 11.3663C10.6297 11.3463 10.8883 11.2354 11.091 11.0513C11.338 10.8317 11.5475 10.5731 11.711 10.2858V10.2808C11.8645 9.99183 11.8125 9.71833 11.591 9.53333C11.1474 9.14558 10.6677 8.80118 10.1585 8.50483C9.81753 8.31983 9.47103 8.43183 9.33053 8.61933L9.03103 8.99683C8.87753 9.18433 8.59853 9.15833 8.59853 9.15833L8.59053 9.16333C6.51003 8.63183 5.95503 6.52533 5.95503 6.52533C5.95503 6.52533 5.92903 6.23883 6.12153 6.09283L6.49653 5.79083C6.67603 5.64483 6.80103 5.29883 6.60853 4.95733C6.31423 4.44741 5.97058 3.9676 5.58253 3.52483C5.49769 3.42044 5.37868 3.34942 5.24653 3.32433L5.24753 3.32533ZM8.22903 3.91933C7.96353 3.91933 7.96353 4.32033 8.23153 4.32033C8.56167 4.32568 8.88752 4.39605 9.19045 4.5274C9.49339 4.65874 9.76747 4.8485 9.99703 5.08583C10.2064 5.31683 10.3674 5.58752 10.4703 5.88185C10.5731 6.17618 10.6159 6.48817 10.596 6.79933C10.5969 6.85199 10.6184 6.9022 10.6559 6.9392C10.6934 6.97621 10.7439 6.99708 10.7965 6.99733L10.8045 7.00783C10.8576 7.00744 10.9084 6.98619 10.9459 6.94867C10.9834 6.91115 11.0046 6.86038 11.005 6.80733C11.023 6.01283 10.776 5.34633 10.2915 4.81233C9.80453 4.27833 9.12503 3.97883 8.25753 3.91933H8.22903ZM8.55753 4.99733C8.28403 4.98933 8.27353 5.39833 8.54453 5.40633C9.20353 5.44033 9.52353 5.77333 9.56553 6.45833C9.56644 6.51033 9.58767 6.5599 9.62468 6.59644C9.66169 6.63298 9.71152 6.65358 9.76353 6.65383H9.77153C9.79826 6.65268 9.8245 6.64622 9.84872 6.63482C9.87293 6.62343 9.89463 6.60732 9.91255 6.58745C9.93047 6.56757 9.94425 6.54433 9.95309 6.51907C9.96193 6.49381 9.96565 6.46704 9.96403 6.44033C9.91703 5.54733 9.43003 5.04433 8.56553 4.99783H8.55753V4.99733Z" fill="#0B0D39"/>
</svg>
