<svg width="14" height="14" viewBox="0 0 14 14" fill="none" xmlns="http://www.w3.org/2000/svg">
<path fill-rule="evenodd" clip-rule="evenodd" d="M7 0C3.13089 0 0 3.12915 0 7C0 8.4598 0.445176 9.8101 1.23594 10.9703C1.26537 11.0139 1.28459 11.0636 1.29216 11.1157C1.29974 11.1678 1.29547 11.2209 1.27969 11.2711L0.56875 13.65L2.89844 12.8461C2.94824 12.8295 3.00113 12.8243 3.05319 12.831C3.10525 12.8376 3.15516 12.8558 3.19922 12.8844C4.29044 13.5924 5.59677 14 7 14C10.8709 14 14 10.8709 14 7C14 3.12905 10.8709 0 7 0ZM4.13438 3.05156L5.40859 5.15704L4.87812 5.68204C4.82412 5.73653 4.78951 5.80726 4.77963 5.88334C4.76975 5.95942 4.78514 6.03665 4.82344 6.10313C5.63296 7.50498 6.59211 8.5956 7.93516 9.1875C7.99952 9.21609 8.071 9.2246 8.14027 9.21192C8.20955 9.19923 8.27338 9.16595 8.32344 9.11642L8.88672 8.55312L10.943 9.83829C10.7153 10.3507 10.4184 10.6558 10.0789 10.8336C9.68561 11.0395 9.20523 11.0785 8.65703 10.9648C7.56064 10.7375 6.23628 9.87581 5.15703 8.77187C4.07779 7.66796 3.2426 6.3256 3.02969 5.23358C2.92323 4.68758 2.97026 4.21736 3.17188 3.84454C3.34547 3.52354 3.64035 3.24872 4.13438 3.05156Z" fill="#0B0D39"/>
</svg>
