<svg width="17" height="17" viewBox="0 0 17 17" fill="none" xmlns="http://www.w3.org/2000/svg">
<path d="M8.07387 0.00247369C6.70962 0.0189424 3.77659 0.24313 2.13609 1.74816C0.915806 2.95729 0.489744 4.74494 0.439807 6.95547C0.398369 9.15804 0.348432 13.2943 4.33546 14.4206V16.136C4.33546 16.136 4.31049 16.8224 4.76418 16.9632C5.32306 17.1401 5.64127 16.612 6.17252 16.0446L7.16331 14.9242C9.89127 15.1511 11.9807 14.6283 12.2213 14.5508C12.7749 14.3738 15.8928 13.9754 16.4023 9.83857C16.925 5.56626 16.1478 2.87441 14.7448 1.65679H14.7363C14.3129 1.26685 12.6113 0.0269112 8.80965 0.0130987C8.80965 0.0130987 8.52755 -0.00602631 8.07387 0.00194244V0.00247369ZM8.12062 1.20363C8.5079 1.20097 8.74324 1.21744 8.74324 1.21744C11.961 1.22594 13.4969 2.19441 13.8592 2.5206C15.0407 3.53316 15.6495 5.95991 15.2038 9.52672C14.7804 12.9852 12.2516 13.204 11.7836 13.3533C11.5844 13.4171 9.74412 13.8708 7.42574 13.7215C7.42574 13.7215 5.69918 15.805 5.15943 16.3416C5.0739 16.4356 4.97402 16.4633 4.91027 16.4494C4.8189 16.4271 4.79127 16.314 4.79659 16.1588L4.81306 13.3119C1.43165 12.3769 1.63087 8.84885 1.66699 7.00594C1.70843 5.16304 2.05427 3.65535 3.08384 2.63429C4.46987 1.38107 6.96037 1.21213 8.11955 1.20363H8.12062ZM8.37562 3.04601C8.34779 3.04572 8.32018 3.05096 8.29438 3.0614C8.26858 3.07184 8.2451 3.08728 8.2253 3.10683C8.20549 3.12639 8.18976 3.14967 8.17899 3.17534C8.16823 3.20101 8.16265 3.22855 8.16259 3.25638C8.16259 3.37538 8.25927 3.46941 8.37562 3.46941C8.90235 3.45939 9.42586 3.55376 9.91595 3.74706C10.406 3.94036 10.853 4.22877 11.2311 4.59566C12.003 5.34525 12.3791 6.35251 12.3935 7.66947C12.3935 7.78582 12.4875 7.88251 12.6065 7.88251V7.874C12.6626 7.87415 12.7164 7.85211 12.7563 7.81271C12.7963 7.7733 12.819 7.71971 12.8195 7.66363C12.8453 7.04374 12.7448 6.42508 12.5241 5.84525C12.3033 5.26542 11.967 4.73653 11.5355 4.29072C10.6945 3.46888 9.62884 3.04547 8.37562 3.04547V3.04601ZM5.5754 3.53316C5.42503 3.51119 5.27167 3.54137 5.14084 3.61869H5.12968C4.82594 3.79674 4.55233 4.02176 4.31899 4.28541C4.12509 4.5096 4.0199 4.73644 3.99227 4.95479C3.97581 5.08494 3.98696 5.2151 4.02574 5.33941L4.03956 5.34791C4.2579 5.98966 4.54318 6.60697 4.89168 7.18816C5.3406 8.00467 5.89306 8.7598 6.53537 9.43482L6.55449 9.46244L6.58477 9.48476L6.6039 9.50707L6.62621 9.52619C7.30368 10.1704 8.06063 10.7254 8.87871 11.1778C9.81371 11.6868 10.3811 11.9274 10.7216 12.0273V12.0326C10.8215 12.0629 10.9123 12.0767 11.0037 12.0767C11.2939 12.0555 11.5687 11.9376 11.7841 11.742C12.0466 11.5086 12.2691 11.2339 12.4429 10.9287V10.9234C12.606 10.6163 12.5507 10.3257 12.3154 10.1292C11.844 9.71718 11.3344 9.35125 10.7933 9.03638C10.431 8.83982 10.0629 8.95882 9.91358 9.15804L9.59537 9.55913C9.43227 9.75835 9.13584 9.73072 9.13584 9.73072L9.12734 9.73604C6.9168 9.17132 6.32712 6.93316 6.32712 6.93316C6.32712 6.93316 6.29949 6.62876 6.50402 6.47363L6.90246 6.15275C7.09318 5.99763 7.22599 5.63 7.02146 5.26716C6.70877 4.72537 6.34364 4.21558 5.93134 3.74513C5.8412 3.63422 5.71475 3.55876 5.57434 3.5321L5.5754 3.53316ZM8.74324 4.16429C8.46115 4.16429 8.46115 4.59035 8.7459 4.59035C9.09667 4.59604 9.44289 4.6708 9.76475 4.81036C10.0866 4.94991 10.3778 5.15153 10.6217 5.40369C10.8442 5.64914 11.0152 5.93674 11.1245 6.24946C11.2339 6.56219 11.2793 6.89368 11.2582 7.22429C11.2591 7.28024 11.282 7.33358 11.3218 7.3729C11.3616 7.41222 11.4153 7.43439 11.4712 7.43466L11.4797 7.44582C11.5361 7.4454 11.59 7.42282 11.6299 7.38296C11.6697 7.3431 11.6923 7.28916 11.6927 7.23279C11.7119 6.38863 11.4494 5.68047 10.9346 5.1131C10.4172 4.54572 9.69524 4.22751 8.77352 4.16429H8.74324ZM9.09227 5.30966C8.80168 5.30116 8.79052 5.73572 9.07846 5.74422C9.77865 5.78035 10.1186 6.13416 10.1633 6.86197C10.1642 6.91722 10.1868 6.96989 10.2261 7.00871C10.2654 7.04754 10.3184 7.06942 10.3736 7.06969H10.3821C10.4106 7.06847 10.4384 7.06161 10.4642 7.0495C10.4899 7.03739 10.5129 7.02028 10.532 6.99916C10.551 6.97804 10.5657 6.95335 10.5751 6.92651C10.5844 6.89967 10.5884 6.87123 10.5867 6.84285C10.5367 5.89404 10.0193 5.3596 9.10077 5.31019H9.09227V5.30966Z" fill="white"/>
</svg>
