<svg width="17" height="17" viewBox="0 0 17 17" fill="none" xmlns="http://www.w3.org/2000/svg">
<g clip-path="url(#clip0_228_23)">
<path fill-rule="evenodd" clip-rule="evenodd" d="M12.3356 10.1873C12.1245 10.0817 11.0897 9.57315 10.897 9.50232C10.7043 9.4322 10.5641 9.39749 10.4231 9.60857C10.2829 9.81824 9.87983 10.2928 9.75729 10.4331C9.63404 10.574 9.5115 10.591 9.30113 10.4862C9.09075 10.3799 8.41217 10.1582 7.60821 9.4414C6.98275 8.88324 6.55988 8.19403 6.43733 7.98295C6.31479 7.77257 6.42388 7.65853 6.52942 7.5537C6.62433 7.45949 6.73979 7.3079 6.84533 7.18536C6.95088 7.06211 6.98558 6.97428 7.05571 6.83332C7.12654 6.69307 7.09113 6.57053 7.038 6.46499C6.98558 6.35945 6.56483 5.32315 6.38917 4.9017C6.21846 4.49157 6.04492 4.54753 5.916 4.54045C5.79275 4.53478 5.6525 4.53336 5.51225 4.53336C5.372 4.53336 5.14392 4.58578 4.95125 4.79686C4.75787 5.00724 4.21458 5.51653 4.21458 6.55282C4.21458 7.5884 4.96825 8.58928 5.07379 8.73024C5.17933 8.87049 6.55775 10.9969 8.66929 11.9085C9.17221 12.1253 9.56392 12.2549 9.86921 12.3512C10.3735 12.512 10.8325 12.4894 11.1952 12.4348C11.599 12.3746 12.4405 11.9255 12.6161 11.4339C12.7911 10.9424 12.7911 10.5209 12.7387 10.4331C12.6862 10.3452 12.546 10.2928 12.3349 10.1873H12.3356ZM8.49504 15.4311H8.49221C7.23806 15.4313 6.00693 15.0942 4.92788 14.455L4.67288 14.3034L2.02229 14.999L2.72992 12.415L2.56346 12.1501C1.86231 11.034 1.49125 9.74229 1.49317 8.42424C1.49458 4.56382 4.63533 1.42307 8.49788 1.42307C10.3679 1.42307 12.126 2.15265 13.4477 3.47582C14.0996 4.12506 14.6164 4.89714 14.968 5.74737C15.3196 6.59761 15.4991 7.50913 15.4962 8.4292C15.4948 12.2896 12.354 15.4311 8.49504 15.4311ZM14.4535 2.4707C13.6731 1.6851 12.7445 1.0622 11.7216 0.638096C10.6986 0.213991 9.6017 -0.00288734 8.49433 2.90258e-05C3.85192 2.90258e-05 0.07225 3.77899 0.0708333 8.42353C0.070125 9.9082 0.457583 11.3574 1.19496 12.6346L0 17L4.46533 15.8284C5.70058 16.5014 7.08482 16.8541 8.4915 16.8541H8.49504C13.1375 16.8541 16.9171 13.0752 16.9185 8.4299C16.922 7.32297 16.7059 6.22635 16.2828 5.20347C15.8597 4.18059 15.2379 3.25175 14.4535 2.4707Z" fill="white"/>
</g>
<defs>
<clipPath id="clip0_228_23">
<rect width="17" height="17" fill="white"/>
</clipPath>
</defs>
</svg>
