<svg width="18" height="18" viewBox="0 0 18 18" fill="none" xmlns="http://www.w3.org/2000/svg">
<path d="M7.61012 10.3196C8.65386 11.3784 9.91676 12.1959 11.3101 12.7146L13.1951 11.2146C13.251 11.1761 13.3173 11.1555 13.3851 11.1555C13.453 11.1555 13.5192 11.1761 13.5751 11.2146L17.0751 13.4696C17.208 13.5495 17.3205 13.6592 17.4037 13.79C17.4869 13.9208 17.5385 14.0692 17.5545 14.2234C17.5705 14.3776 17.5504 14.5335 17.4959 14.6786C17.4413 14.8237 17.3538 14.9542 17.2401 15.0596L15.6001 16.6796C15.3653 16.9117 15.0766 17.082 14.7599 17.1753C14.4432 17.2687 14.1083 17.2822 13.7851 17.2146C10.5612 16.5488 7.58969 14.9894 5.21012 12.7146C2.88336 10.4172 1.27326 7.49405 0.575119 4.29963C0.506152 3.98145 0.520547 3.65084 0.616907 3.33986C0.713268 3.02888 0.888327 2.74806 1.12512 2.52463L2.82512 0.884625C2.93032 0.776519 3.05861 0.693613 3.20039 0.642114C3.34217 0.590616 3.49377 0.57186 3.64382 0.58725C3.79388 0.60264 3.93851 0.651779 4.06689 0.730986C4.19526 0.810192 4.30406 0.917415 4.38512 1.04463L6.71512 4.49963C6.75531 4.55388 6.777 4.61961 6.777 4.68713C6.777 4.75464 6.75531 4.82037 6.71512 4.87463L5.18012 6.71963C5.71291 8.0851 6.54299 9.31484 7.61012 10.3196Z" fill="white"/>
</svg>
